<svg width="154" height="113" viewBox="0 0 154 113" fill="none" xmlns="http://www.w3.org/2000/svg">
<path d="M37.7768 104.016V88.6549C37.7768 88.4491 37.7953 88.2338 37.7768 88.0286C37.776 88.0196 37.7768 88.0103 37.7768 88.0013C37.7757 87.9242 37.712 87.862 37.6332 87.8609C36.6334 87.8573 35.7039 87.3573 35.1655 86.5333C34.8573 86.0432 34.6999 85.4766 34.7123 84.9013V73.1605C34.7123 72.9373 34.7287 72.7073 34.7123 72.4845C34.7116 72.4747 34.7123 72.4647 34.7123 72.4548C34.7112 72.3777 34.6475 72.3154 34.5686 72.3143H24.7047C24.6258 72.3154 24.5622 72.3777 24.5611 72.4548V85.1917L24.7047 85.0512H16.1336C16.0548 85.0523 15.9911 85.1146 15.99 85.1917V111.577C15.9799 111.695 15.9799 111.814 15.99 111.931C15.9913 111.946 15.9913 111.962 15.99 111.977L16.1336 111.836H10.5313C10.4539 111.839 10.3926 111.901 10.3926 111.977C10.3926 112.052 10.4539 112.115 10.5313 112.117H16.1336C16.2125 112.116 16.2762 112.054 16.2773 111.977V85.5911C16.2874 85.4733 16.2874 85.3548 16.2773 85.237C16.276 85.2219 16.276 85.2068 16.2773 85.1917L16.1336 85.3322H24.7047C24.7836 85.3311 24.8472 85.2689 24.8484 85.1917V72.4548L24.7047 72.5953H34.5686L34.425 72.4548V84.8739C34.414 85.3945 34.5255 85.9106 34.7508 86.3824C35.1823 87.2399 35.9878 87.8599 36.9414 88.0685C37.1687 88.1169 37.4006 88.1415 37.6332 88.1418L37.4895 88.0013V103.363C37.4895 103.568 37.471 103.784 37.4895 103.989C37.4903 103.998 37.4895 104.007 37.4895 104.016C37.4921 104.092 37.5556 104.152 37.6332 104.152C37.7107 104.152 37.7742 104.092 37.7768 104.016Z" fill="black"/>
<path d="M34.6165 81.3988H44.0495L43.9058 81.2583V100.738C43.9069 100.815 43.9706 100.878 44.0495 100.879H45.8969C46.5261 100.879 47.1927 100.941 47.819 100.86C48.8664 100.715 49.6464 99.8405 49.6518 98.8059C49.6638 98.1844 49.6518 97.5615 49.6518 96.9399V94.9317L49.5082 95.0722H59.3721L59.2285 94.9317V104.578C59.2296 104.655 59.2932 104.717 59.3721 104.719H62.4367C62.5156 104.717 62.5792 104.655 62.5804 104.578V85.8473L62.4367 85.9878H69.0446L68.901 85.8473V100.738C68.9021 100.815 68.9657 100.878 69.0446 100.879H74.6948L74.5512 100.738V106.357C74.5523 106.435 74.616 106.497 74.6948 106.498H81.59C81.6689 106.497 81.7325 106.435 81.7337 106.357V98.7715L81.59 98.912C84.1998 98.8852 86.3074 96.8205 86.3303 94.2682C86.3419 92.7737 86.3303 91.2786 86.3303 89.7841V88.0014L86.1866 88.1418H94.2789C94.3578 88.1407 94.4214 88.0785 94.4226 88.0014C94.4226 86.6672 94.4112 85.3326 94.4226 83.9985C94.4233 82.736 95.0909 81.5635 96.1879 80.8979C97.0286 80.3951 97.9204 80.3686 98.8663 80.3686H101.318C101.395 80.3659 101.457 80.3038 101.457 80.2281C101.457 80.1524 101.395 80.0902 101.318 80.0876H99.0424C98.124 80.0876 97.2423 80.0721 96.3877 80.4718C95.1978 81.0369 94.3703 82.1405 94.177 83.4201C94.0745 84.1216 94.1352 84.8643 94.1352 85.5699V88.0013L94.2789 87.8608H86.1866C86.1078 87.8619 86.0441 87.9242 86.043 88.0013V92.0049C86.043 93.5656 86.2444 95.2399 85.3436 96.6203C84.5211 97.8688 83.1085 98.6255 81.5899 98.6311C81.511 98.6322 81.4473 98.6944 81.4462 98.7715V106.357L81.5899 106.217H74.6947L74.8383 106.357V100.738C74.8372 100.661 74.7736 100.599 74.6947 100.598H69.0445L69.1881 100.738V85.8473C69.187 85.7702 69.1234 85.7079 69.0445 85.7068H62.4366C62.3577 85.7079 62.2941 85.7702 62.2929 85.8473V104.578L62.4366 104.438H59.372L59.5156 104.578V94.9317C59.5145 94.8546 59.4509 94.7924 59.372 94.7913H49.5082C49.4293 94.7924 49.3656 94.8546 49.3645 94.9317V98.5987C49.3786 98.8795 49.3415 99.1605 49.2548 99.4285C49.0303 100.021 48.5044 100.454 47.8697 100.57C47.3024 100.672 46.6668 100.598 46.0947 100.598H44.0495L44.1931 100.738V81.2583C44.192 81.1812 44.1283 81.1189 44.0495 81.1178H34.6165C34.539 81.1203 34.4775 81.1825 34.4775 81.2583C34.4775 81.3341 34.539 81.3963 34.6165 81.3988Z" fill="black"/>
<path d="M108.452 35.2274C108.452 35.2274 114.032 35.1274 114.869 41.3149C115.55 46.3532 109.467 49.6923 104.605 47.8997C103.454 47.4763 102.339 46.9647 101.27 46.3697V43.8688L109.937 36.0879" fill="#9C8629"/>
<path d="M108.452 35.5083C108.668 35.5087 108.883 35.5241 109.097 35.5545C109.011 35.5438 109.158 35.5633 109.184 35.5673C109.244 35.5763 109.303 35.5861 109.363 35.5967C109.486 35.6186 109.609 35.6437 109.731 35.672C110.02 35.739 110.306 35.8239 110.584 35.9262C112.103 36.4957 113.322 37.639 113.969 39.0981C114.439 40.1237 114.663 41.2403 114.627 42.3634C114.568 43.3648 114.222 44.3298 113.629 45.1478C112.419 46.842 110.319 47.8601 108.246 48.066C107.134 48.1816 106.01 48.0642 104.948 47.7217C103.784 47.3266 102.66 46.8257 101.591 46.2256C101.532 46.1932 101.473 46.1607 101.415 46.127L101.557 46.3696V43.8687L101.473 44.0674L104.401 41.4387L109.068 37.2486L110.139 36.2866C110.412 36.0415 110.005 35.6449 109.733 35.8892L108.098 37.3568L104.696 40.4111L101.717 43.0856C101.509 43.2727 101.287 43.4519 101.089 43.6499C101.001 43.7513 100.962 43.8849 100.982 44.0163V46.0702C100.982 46.2753 100.942 46.4959 101.145 46.6238C101.393 46.7803 101.667 46.9083 101.929 47.0404C102.493 47.3244 103.067 47.5868 103.652 47.8275C104.729 48.2724 105.806 48.6022 106.98 48.6601C108.011 48.7086 109.043 48.5778 110.027 48.2737C111.897 47.6969 113.633 46.4839 114.543 44.7537C115.516 42.9024 115.314 40.7292 114.486 38.8609C113.856 37.4229 112.708 36.2616 111.26 35.5981C110.423 35.2139 109.517 34.9935 108.594 34.9491C108.547 34.9473 108.499 34.9456 108.452 34.9464C108.083 34.9525 108.082 35.5144 108.452 35.5083L108.452 35.5083Z" fill="black"/>
<path d="M96.1941 49.6501L89.1074 73.9064C87.816 77.2292 82.4038 78.7764 77.8873 75.6753C76.4514 74.9161 75.1391 73.952 73.9937 72.8146L63.04 61.9971C63.8605 61.2892 68.115 58.7227 68.9972 57.7142C70.377 56.1368 71.4532 54.5825 72.0494 53.3858L81.2543 61.1669L87.0425 48.1672C88.4544 44.9962 91.8288 43.1091 95.3395 43.527L98.9798 43.9603" fill="#95D87A"/>
<path d="M95.9174 49.5754L95.2644 51.8108L93.6779 57.2407L91.7234 63.9304L89.9516 69.9954L88.9149 73.5435C88.3516 75.4717 86.3802 76.623 84.4597 76.961C82.7154 77.2423 80.9247 76.9744 79.3461 76.1961C78.9147 75.9799 78.4967 75.739 78.0942 75.4746C77.668 75.2043 77.2127 74.9779 76.7876 74.7032C75.9053 74.1322 75.0829 73.4775 74.3322 72.7484C73.4696 71.9115 72.6214 71.0598 71.7664 70.2154L66.8648 65.3748L63.418 61.9708L63.2434 61.7984V62.1957C63.6663 61.8609 64.1076 61.5489 64.5653 61.2611C65.2529 60.8007 65.9447 60.3463 66.6291 59.8814C67.275 59.4427 67.9198 58.9987 68.531 58.5145C69.2075 57.9785 69.7301 57.3084 70.2581 56.635C71.041 55.6674 71.7241 54.6266 72.2977 53.5277L71.8465 53.5845L74.954 56.2114L79.9099 60.4008L81.0514 61.3656C81.1149 61.4261 81.2031 61.4548 81.291 61.4438C81.3789 61.4327 81.4568 61.383 81.5026 61.3088L82.8134 58.3649L85.3814 52.5975L87.195 48.5247C87.5298 47.7344 87.9876 46.9996 88.552 46.3461C89.5893 45.1845 90.9633 44.3587 92.4916 43.9784C93.6186 43.6996 94.7356 43.7361 95.8766 43.8719L98.7568 44.2148L98.9802 44.2414C99.1385 44.2404 99.2665 44.1152 99.2675 43.9604C99.264 43.8067 99.1374 43.6829 98.9802 43.6795L96.5223 43.3869C95.5178 43.2673 94.5264 43.1263 93.5113 43.2338C90.5478 43.5534 87.9827 45.3925 86.7794 48.0602C86.2648 49.2123 85.7515 50.365 85.2396 51.5182L82.6326 57.3732L81.5743 59.7499C81.3953 60.152 81.1774 60.5549 81.0311 60.9698C81.0245 60.9886 81.0147 61.0068 81.0065 61.0251L81.4577 60.9683L78.3502 58.3414L73.3943 54.152L72.2528 53.1871C72.1893 53.1268 72.1011 53.0981 72.0132 53.1092C71.9254 53.1202 71.8475 53.1699 71.8016 53.244C71.3039 54.2033 70.7187 55.1168 70.0531 55.9733C69.5162 56.6834 68.9714 57.4243 68.2758 57.9954C67.0741 58.9822 65.727 59.8068 64.4329 60.6706C63.8786 61.0153 63.3458 61.3918 62.8372 61.7983C62.7268 61.9088 62.7268 62.0852 62.8372 62.1957L65.3991 64.7258L70.343 69.6083L73.671 72.8949C74.6187 73.8423 75.6748 74.6797 76.8185 75.3906C77.2474 75.6539 77.6874 75.895 78.114 76.1613C78.536 76.4254 78.9782 76.6573 79.4366 76.855C80.2805 77.2201 81.1745 77.4622 82.0902 77.5736C83.7224 77.7849 85.3814 77.4936 86.8365 76.7402C87.9418 76.1468 88.9827 75.1707 89.3869 73.9738C89.6623 73.1584 89.8714 72.3154 90.1126 71.49L91.7544 65.8704L93.7376 59.0825L95.4831 53.1078L96.4273 49.8759L96.4715 49.7249C96.5732 49.3765 96.0189 49.2278 95.9174 49.5755L95.9174 49.5754Z" fill="black"/>
<path d="M63.0389 62.02C63.5056 62.4092 64.8211 61.7096 66.4018 60.3419L64.3394 58.3C63.1119 60.1396 62.5539 61.6155 63.0389 62.02Z" fill="black"/>
<path d="M62.8358 62.2187C63.2899 62.5771 63.9022 62.3468 64.3651 62.1234C65.1887 61.7257 65.9201 61.1309 66.605 60.5406C66.7154 60.4301 66.7154 60.2537 66.605 60.1432L64.5426 58.1014C64.479 58.0411 64.3908 58.0125 64.3029 58.0236C64.2151 58.0346 64.1372 58.0842 64.0913 58.1583C63.5361 58.9429 63.0845 59.7931 62.7472 60.6885C62.5921 61.1427 62.41 61.844 62.8358 62.2187C63.1101 62.46 63.5177 62.0638 63.2421 61.8213C63.2255 61.808 63.2103 61.7931 63.1967 61.7768C63.2189 61.8064 63.2141 61.7996 63.1975 61.7726C63.1903 61.761 63.1673 61.7129 63.1915 61.7693C63.1836 61.7512 63.1772 61.7325 63.1725 61.7133C63.1509 61.635 63.1447 61.5534 63.1541 61.4729C63.1818 61.2098 63.2471 60.9518 63.3483 60.7065C63.673 59.9085 64.0887 59.1488 64.5876 58.4419L64.1363 58.4987L66.1988 60.5406V60.1432C65.6025 60.6832 64.9462 61.1561 64.2422 61.5532C64.0279 61.6749 63.7972 61.7666 63.5569 61.8258C63.4782 61.8477 63.3957 61.8535 63.3145 61.8431C63.3736 61.8487 63.283 61.8343 63.2604 61.8275C63.31 61.8426 63.1966 61.7853 63.2422 61.8213C63.128 61.7163 62.95 61.7163 62.8359 61.8213C62.7246 61.9314 62.7246 62.1085 62.8358 62.2187Z" fill="black"/>
<path d="M68.9922 57.7346C70.3696 56.1553 71.4435 54.5994 72.0378 53.4019L70.3269 51.9652L67.5126 49.6022L62.0454 56.0294L64.3391 58.3002L66.4015 60.342C67.3253 59.5322 68.191 58.661 68.9922 57.7346Z" fill="#F7FFF4"/>
<path d="M69.1957 57.9333C70.3674 56.586 71.489 55.1388 72.2862 53.5438C72.3497 53.433 72.3314 53.2947 72.2413 53.2033L68.5151 50.0744L67.7161 49.4036C67.6031 49.2958 67.4229 49.2958 67.3098 49.4036L65.468 51.5688L62.5166 55.0384L61.8426 55.8308C61.7341 55.942 61.7341 56.1169 61.8426 56.2281L65.2745 59.6257L66.1987 60.5407C66.3123 60.6472 66.4915 60.6472 66.605 60.5407C67.5285 59.7305 68.3941 58.8593 69.1957 57.9333C69.4349 57.6599 69.0302 57.2606 68.7894 57.536C67.9878 58.4619 67.1222 59.3331 66.1988 60.1432H66.6051L63.1093 56.6824L62.2489 55.8306V56.228L64.0908 54.0628L67.0422 50.5932L67.7162 49.8008H67.3099L70.7837 52.7177L71.835 53.6005L71.7901 53.26C71.014 54.813 69.9303 56.224 68.7895 57.5359C68.5512 57.81 68.9557 58.2093 69.1957 57.9333Z" fill="black"/>
<path d="M69.2151 51.0314L67.5195 49.6125L66.6946 45.2279C66.4682 43.8289 65.4601 42.6717 64.0838 42.2309L58.1133 41.637C58.1133 41.637 55.645 42.0311 57.4947 44.3769C57.4947 44.3769 56.1563 45.305 57.6644 46.9388C57.021 47.7485 57.4625 49.4239 58.1484 49.6572C57.6682 50.5793 58.179 51.4527 59.5116 51.6908L60.6651 52.0852L61.1713 54.3128C61.3411 55.0598 61.726 55.7436 62.2805 56.2834L63.6026 57.5705" fill="#F7FFF4"/>
<path d="M69.4182 50.8327L67.8805 49.5459C67.8434 49.5103 67.8038 49.4771 67.7621 49.4468C67.6584 49.3829 67.8192 49.4831 67.7961 49.5357C67.8094 49.5054 67.7723 49.4094 67.7664 49.3781L67.6055 48.5231L67.1359 46.0273C67.017 45.3951 66.9315 44.7504 66.6641 44.1578C66.4024 43.5804 66.0038 43.0724 65.5013 42.6756C65.2524 42.4769 64.9808 42.3072 64.6919 42.1697C64.4976 42.064 64.2873 41.9893 64.0689 41.9484C63.5651 41.8915 63.0594 41.848 62.5549 41.7978L59.9366 41.5374C59.3543 41.4795 58.7702 41.4019 58.1861 41.3633C57.8434 41.3728 57.5111 41.4812 57.2312 41.6748C56.9389 41.8467 56.7143 42.1099 56.5937 42.4219C56.4405 42.8452 56.5483 43.3013 56.7287 43.6981C56.8681 43.9903 57.0419 44.2658 57.2465 44.5187L57.3496 44.1343C57.0556 44.3468 56.839 44.6458 56.7315 44.9874C56.477 45.7839 56.937 46.5588 57.4612 47.1374L57.4163 46.7969C57.0277 47.3073 57.0038 48.0141 57.1365 48.6144C57.2524 49.139 57.5282 49.7242 58.072 49.928L57.9003 49.5153C57.6721 49.9161 57.6281 50.3926 57.7792 50.8268C57.9626 51.2476 58.3086 51.5803 58.7419 51.7525C59.0723 51.8957 59.4303 51.96 59.7714 52.0766L60.5886 52.356L60.3879 52.1598L60.8708 54.2846C60.9988 54.8853 61.253 55.4534 61.6173 55.953C61.89 56.2934 62.1896 56.6123 62.5134 56.9068L63.3993 57.7692C63.5125 57.8726 63.6892 57.8697 63.7988 57.7625C63.9083 57.6554 63.9113 57.4826 63.8056 57.3718L62.602 56.2001C62.01 55.6404 61.6005 54.922 61.4249 54.1352L61.0028 52.2775C60.9522 52.0552 60.9375 51.8848 60.6869 51.7955C60.3771 51.6851 60.0641 51.5826 59.7529 51.4762C59.34 51.3351 58.9001 51.2913 58.5668 50.9828C58.2371 50.6741 58.1667 50.1846 58.3964 49.7989C58.4392 49.7232 58.4446 49.6326 58.4113 49.5525C58.3779 49.4724 58.3094 49.4112 58.2247 49.3862C57.898 49.2637 57.7416 48.7228 57.6797 48.4136C57.5637 47.9569 57.6481 47.4737 57.9124 47.0805C57.9772 46.97 57.9589 46.8308 57.8675 46.7401C57.4707 46.3021 57.0832 45.7079 57.2967 45.1033C57.3473 44.9689 57.423 44.8449 57.5199 44.7376C57.5563 44.6981 57.596 44.6626 57.635 44.6256C57.6803 44.5828 57.694 44.5813 57.6395 44.6196C57.775 44.5401 57.8208 44.3694 57.7426 44.2351C57.4453 43.8532 57.0999 43.3799 57.0944 42.8776C57.0865 42.6148 57.2152 42.3658 57.4363 42.2162C57.4327 42.219 57.5113 42.1654 57.5549 42.1396C57.6134 42.105 57.6739 42.075 57.7352 42.0458C57.7538 42.0369 57.8189 42.0104 57.7649 42.0321C57.7924 42.0211 57.8201 42.0107 57.8481 42.0007C57.8941 41.9843 57.9407 41.9693 57.9878 41.9558C58.0465 41.9389 58.1112 41.9318 58.1685 41.9118C58.2177 41.8946 58.0654 41.8993 58.1499 41.9217C58.3302 41.9536 58.5127 41.9717 58.6959 41.976L59.6997 42.0758L62.2199 42.3265L63.9758 42.5012C64.2563 42.529 64.5665 42.7224 64.8316 42.8898C65.3365 43.2117 65.7502 43.6531 66.0342 44.173C66.3478 44.7437 66.4327 45.3835 66.5508 46.0115L66.9988 48.3925L67.1798 49.3547C67.1839 49.5173 67.2321 49.6759 67.3196 49.8142C67.5192 50.0025 67.7302 50.1791 67.9513 50.3428L68.8439 51.0897L69.0118 51.2302C69.2914 51.4641 69.6996 51.0685 69.4181 50.8329L69.4182 50.8327Z" fill="black"/>
<path d="M66.6981 39.0672L63.9209 46.9342L63.4562 52.9979C63.4176 53.5016 63.1622 53.9657 62.7535 54.2747C62.3449 54.5836 61.8213 54.7085 61.3131 54.6181C60.399 54.4558 59.7562 53.6469 59.8209 52.7406L60.8565 38.2244" fill="black"/>
<path d="M66.4213 38.9926L65.5675 41.4113L64.1187 45.5152L63.6927 46.7218C63.6405 46.8962 63.6124 47.0766 63.609 47.2583L63.3032 51.2468L63.1827 52.8188C63.1333 53.4622 62.8186 54.0517 62.1592 54.2783C61.678 54.4395 61.1466 54.3598 60.7369 54.0651C60.3271 53.7704 60.091 53.2981 60.105 52.8009C60.1106 52.6354 60.1276 52.4697 60.1393 52.3046L60.3505 49.344L60.6655 44.929L60.9664 40.7121L61.1358 38.3375L61.1439 38.2244C61.1696 37.8635 60.5949 37.8651 60.5693 38.2244L60.446 39.9528L60.1587 43.9796L59.8301 48.5866L59.5874 51.988C59.5704 52.2258 59.5524 52.4635 59.5365 52.7014C59.4588 53.6565 60.0637 54.5383 60.9969 54.8301C61.9302 55.1219 62.946 54.747 63.4494 53.9249C63.726 53.4767 63.7448 52.9824 63.7833 52.4797L64.1058 48.2727C64.139 47.8405 64.1891 47.4059 64.2054 46.9727C64.2085 46.8911 64.2101 46.9952 64.2001 47.0034C64.2151 46.9912 64.2237 46.9363 64.23 46.9187L64.382 46.4882L65.7216 42.6934L66.9089 39.3302L66.9753 39.1421C67.0963 38.7995 66.5414 38.6524 66.4212 38.9927L66.4213 38.9926Z" fill="black"/>
<path d="M59.92 43.7202L62.7447 45.1024C63.0827 45.2223 63.6975 46.5902 63.7469 46.9473C63.8164 47.3431 63.5903 47.7317 63.2069 47.8756C63.8867 48.4812 64.2812 49.4971 63.4474 49.64C63.956 50.4917 64.1618 51.2509 63.3156 51.3238C64.3491 52.3123 63.4494 52.8898 62.9259 52.7629L58.957 51.5477" fill="#F7FFF4"/>
<path d="M59.7748 43.9628L61.8786 44.9922C62.1211 45.1109 62.3722 45.2201 62.6091 45.349C62.6608 45.374 62.7043 45.4123 62.7351 45.4599C62.8217 45.5708 62.8984 45.6889 62.964 45.8129C63.1107 46.069 63.2376 46.3355 63.3436 46.6101C63.3874 46.722 63.4249 46.8361 63.4559 46.952C63.4626 46.9775 63.4655 47.0034 63.4708 47.0291C63.4475 46.9169 63.47 47.0152 63.4691 47.0498C63.4815 47.3113 63.3153 47.5492 63.0617 47.6329C62.9854 47.6773 62.9341 47.7536 62.9228 47.8397C62.9114 47.9259 62.9412 48.0123 63.0036 48.0742C63.2436 48.2932 64.0505 49.2328 63.3708 49.369C63.2854 49.3931 63.216 49.4541 63.1825 49.5346C63.149 49.6151 63.1551 49.7062 63.1991 49.7818C63.393 50.0633 63.5286 50.3794 63.5982 50.712C63.6246 50.9251 63.5358 51.0189 63.3154 51.0428C63.2011 51.0464 63.0995 51.1152 63.0557 51.2185C63.0119 51.3219 63.034 51.4408 63.1123 51.5224C63.2847 51.6923 63.6098 52.0174 63.4765 52.2902C63.3923 52.4187 63.2477 52.4972 63.0917 52.4992C62.8912 52.4718 62.6953 52.4186 62.509 52.341L59.808 51.514L59.0332 51.2768C58.6795 51.1685 58.5282 51.7108 58.8805 51.8187L61.176 52.5215L62.5514 52.9426C62.8552 53.0356 63.1265 53.1114 63.4461 52.9951C63.7549 52.8933 63.9873 52.6419 64.0599 52.3312C64.1544 51.8625 63.8365 51.4383 63.5186 51.1251L63.3154 51.6047C63.7632 51.5562 64.1429 51.3359 64.1746 50.8585C64.2063 50.3811 63.9303 49.8965 63.6952 49.4982L63.5235 49.9109C63.7454 49.8746 63.9423 49.7506 64.0679 49.5681C64.1936 49.3856 64.237 49.1606 64.1879 48.9458C64.1098 48.4553 63.7726 48.0078 63.4099 47.6769L63.3517 48.1182C63.8617 47.9004 64.1407 47.3583 64.0158 46.828C63.9486 46.5658 63.8536 46.3111 63.7323 46.0682C63.6089 45.7786 63.457 45.5015 63.2788 45.2408C63.066 44.9429 62.8295 44.8304 62.5119 44.675L61.1116 43.9898L60.0648 43.4776C59.7351 43.3163 59.4437 43.8008 59.7748 43.9629L59.7748 43.9628Z" fill="black"/>
<path d="M87.9578 61.0975L83.0741 72.6889C80.9672 76.8096 80.8571 76.5438 78.4031 79.1283L75.8916 81.7733L87.7666 84.3956L94.9491 63.6044" fill="#95D87A"/>
<path d="M87.6811 61.0229L86.4663 63.9062L84.168 69.361L83.2511 71.537C83.1034 71.8877 82.9701 72.249 82.8063 72.593C82.5524 73.1258 82.2581 73.651 81.9754 74.172C81.7009 74.6781 81.4177 75.181 81.1023 75.6641C80.6149 76.3777 80.0576 77.0431 79.4381 77.6508C78.2216 78.8994 77.0257 80.1666 75.8258 81.4303L75.6887 81.5747C75.618 81.646 75.5906 81.7484 75.6165 81.8445C75.6425 81.9406 75.718 82.0164 75.8155 82.0443L79.8491 82.935L86.2244 84.3428L87.6905 84.6666C87.8429 84.7037 87.9984 84.6174 88.0439 84.4703L88.7625 82.3903L90.4733 77.438L92.5484 71.4312L94.3424 66.2381L94.9321 64.531C95.0256 64.2603 95.1355 63.9899 95.2142 63.7146C95.2176 63.7026 95.2223 63.6909 95.2264 63.6792C95.345 63.3358 94.7902 63.1885 94.6723 63.5298L93.9537 65.6099L92.2429 70.5621L90.1678 76.569L88.3738 81.7621L87.7841 83.4692C87.6756 83.7363 87.5814 84.0089 87.502 84.2856C87.4986 84.2976 87.4945 84.3094 87.4898 84.321L87.8432 84.1247L83.8096 83.234L77.4343 81.8262L75.9682 81.5024L76.0949 81.972C77.1563 80.8542 78.2091 79.728 79.2839 78.6225C79.9683 77.9604 80.609 77.2564 81.2022 76.5149C81.9285 75.5474 82.4816 74.4577 83.0345 73.3904C83.5736 72.3495 83.9898 71.2482 84.4441 70.17L86.7422 64.7156L87.7079 62.4235C87.8751 62.0268 88.0633 61.6327 88.2114 61.2286C88.2184 61.2096 88.2272 61.191 88.2351 61.1722C88.2761 61.0227 88.1867 60.8688 88.0345 60.8266C87.882 60.7891 87.7263 60.8756 87.6811 61.0228V61.0229Z" fill="#95D87A"/>
<path d="M65.4327 46.7361L62.5444 44.8438C62.3458 44.7137 62.1017 44.6684 61.8682 44.7183C61.6347 44.7681 61.4321 44.9089 61.307 45.108C61.0963 45.4438 61.1461 45.8767 61.4279 46.1582L63.8226 48.5508C62.8272 50.1341 62.9584 52.1587 64.15 53.6065" fill="#F7FFF4"/>
<path d="M65.5776 46.4936C64.6214 45.8671 63.676 45.2205 62.7071 44.6129C62.2519 44.3138 61.645 44.3655 61.2494 44.737C60.8539 45.1085 60.7766 45.6994 61.0638 46.1564C61.189 46.3266 61.3324 46.4832 61.4916 46.6236L62.2551 47.3864L63.6194 48.7495L63.5745 48.409C63.2457 48.917 63.0285 49.4863 62.9366 50.0807C62.7217 51.3814 63.0716 52.7108 63.9019 53.7484C64.1221 54.0332 64.6213 53.7535 64.3981 53.4647C63.6539 52.5022 63.2739 51.3339 63.5088 50.132C63.5956 49.6202 63.7867 49.1308 64.0707 48.6926C64.1355 48.5821 64.1171 48.4429 64.0258 48.3521L61.7003 46.0288C61.4869 45.8156 61.3767 45.5281 61.5551 45.2499C61.6473 45.1127 61.7936 45.0192 61.9591 44.9917C62.1246 44.9642 62.2944 45.0053 62.4277 45.105C62.9027 45.4095 63.3716 45.7235 63.8435 46.0326L65.2876 46.9788C65.5957 47.1806 65.8836 46.6941 65.5777 46.4935L65.5776 46.4936Z" fill="black"/>
<path d="M111.013 74.0328L111.018 75.6406C111.023 77.7388 109.593 79.5816 107.526 80.1409L101.636 81.7341L102.535 70.9865" fill="black"/>
<path d="M110.726 74.0326C110.728 74.8381 110.81 75.6981 110.648 76.4922C110.367 77.8579 109.444 79.0146 108.159 79.6144C107.584 79.8817 106.926 80.0113 106.315 80.1765L103.472 80.9456L101.559 81.463L101.923 81.734L102.227 78.0972L102.711 72.3069L102.822 70.9863C102.852 70.6258 102.277 70.6278 102.247 70.9863L101.943 74.623L101.459 80.4134L101.348 81.734C101.349 81.8214 101.391 81.9035 101.462 81.9564C101.533 82.0094 101.625 82.0273 101.712 82.0049L106.312 80.7607C106.937 80.6181 107.553 80.4392 108.157 80.2249C109.54 79.6683 110.603 78.5461 111.065 77.1552C111.396 76.1522 111.303 75.0715 111.3 74.0326C111.295 73.8813 111.168 73.7613 111.013 73.7613C110.858 73.7613 110.731 73.8813 110.726 74.0326H110.726Z" fill="black"/>
<path d="M87.9177 70.049L68.8535 127.042L84.2809 131.747C84.2809 131.747 97.6074 90.0339 99.1535 83.6335C100.7 77.2332 101.996 68.4703 101.996 68.4703" fill="#389B48"/>
<path d="M87.6409 69.9743L87.1301 71.5015L85.7399 75.6574L83.6925 81.7782L81.1861 89.2713L78.4506 97.4489L75.6796 105.733L73.096 113.457L70.9205 119.961L69.3504 124.655C69.1036 125.392 68.834 126.127 68.609 126.871C68.5992 126.903 68.5875 126.935 68.5768 126.967C68.5372 127.116 68.6261 127.27 68.7775 127.313L74.0014 128.906L82.2933 131.435L84.2049 132.018C84.3575 132.056 84.514 131.969 84.5583 131.822C84.7297 131.285 84.9008 130.749 85.0717 130.212C85.5288 128.778 85.9852 127.343 86.4409 125.909C87.1028 123.825 87.7635 121.741 88.4228 119.657C89.2121 117.162 89.9994 114.666 90.7847 112.17C91.6173 109.523 92.4469 106.875 93.2734 104.226C94.0647 101.687 94.8515 99.148 95.6337 96.6072C96.3072 94.4164 96.9736 92.2236 97.6329 90.0286C98.1112 88.4293 98.5867 86.8287 99.0321 85.2203C99.6925 82.8347 100.187 80.4071 100.656 77.9796C101.229 75.0117 101.742 72.0333 102.197 69.0445C102.223 68.8781 102.248 68.7116 102.273 68.5451C102.325 68.1914 101.772 68.0386 101.719 68.3957C101.391 70.6138 101.017 72.8262 100.621 75.0338C100.068 78.1217 99.5008 81.2263 98.6972 84.263C98.3215 85.6826 97.9053 87.0923 97.4888 88.5008C96.8732 90.5827 96.2461 92.6612 95.6075 94.7365C94.8456 97.2272 94.0772 99.716 93.3025 102.203C92.4822 104.841 91.6581 107.478 90.83 110.113C90.0306 112.659 89.2287 115.205 88.4244 117.75C87.7247 119.964 87.0235 122.178 86.3209 124.392C85.8082 126.007 85.2948 127.622 84.7806 129.237C84.5349 130.008 84.2311 130.783 84.0371 131.569C84.0285 131.604 84.0151 131.638 84.0042 131.672L84.3576 131.476L79.1336 129.883L70.8417 127.354L68.9301 126.771L69.1308 127.116L69.6417 125.589L71.0318 121.433L73.0792 115.313L75.5857 107.819L78.3211 99.6419L81.0923 91.3575L83.6758 83.6338L85.8513 77.1301L87.4214 72.4363C87.6682 71.6986 87.9378 70.9643 88.1628 70.2199C88.1726 70.1875 88.1843 70.1557 88.195 70.1237C88.3103 69.7792 87.7556 69.6316 87.6409 69.9743Z" fill="black"/>
<path d="M106.375 67.8597L108.622 77.8777C109.309 80.9383 109.549 84.0784 109.336 87.2047L108.402 100.899C114.315 104.033 128.641 113.952 128.641 113.952L119.963 127.283L104.084 117.684C98.1683 114.108 94.171 108.158 93.1636 101.428L90.8213 85.6089L93.3437 71.9189" fill="#389B48"/>
<path d="M106.098 67.9344L107.28 73.2044C107.71 75.1208 108.187 77.0338 108.555 78.9628C109.037 81.4906 109.214 84.0647 109.083 86.6327C109.053 87.2088 109.009 87.7845 108.97 88.3601L108.49 95.4057L108.251 98.9021C108.208 99.5364 108.141 100.174 108.121 100.809C108.12 100.839 108.117 100.869 108.115 100.899C108.114 101 108.168 101.092 108.257 101.142C111.512 102.87 114.603 104.914 117.68 106.923C120.702 108.896 123.701 110.903 126.676 112.944C127.284 113.359 127.89 113.776 128.496 114.194L128.393 113.81L125.451 118.33L120.784 125.499L119.715 127.141L120.108 127.04L116.583 124.909L109.601 120.689L104.567 117.646C101.818 116.019 99.4299 113.871 97.5432 111.328C95.3705 108.337 93.9589 104.883 93.4257 101.252C93.1609 99.4689 92.8969 97.686 92.6338 95.9031L91.4843 88.1395L91.1455 85.8516C91.1337 85.7718 91.1255 85.6905 91.1099 85.6114C91.078 85.4491 91.1418 85.6504 91.0988 85.6824C91.1545 85.6409 91.1646 85.3252 91.1763 85.2617L92.3758 78.7512L93.5549 72.3521L93.621 71.9936C93.6861 71.64 93.1325 71.4884 93.0669 71.8443L92.1717 76.7024L90.7972 84.1624L90.6105 85.1758C90.573 85.3179 90.5474 85.4628 90.5342 85.609C90.5438 85.7439 90.5633 85.878 90.5928 86.0101L90.731 86.9438L91.7938 94.1214L92.7822 100.797C92.901 101.599 93.0244 102.398 93.2053 103.19C94.6091 109.316 98.4797 114.629 103.941 117.928C105.166 118.671 106.392 119.412 107.619 120.151L114.667 124.411L119.565 127.372L119.818 127.526C119.956 127.601 120.129 127.557 120.211 127.425L123.154 122.905L127.821 115.736L128.89 114.093C128.966 113.959 128.921 113.789 128.786 113.709C127.062 112.515 125.328 111.334 123.585 110.165C120.224 107.901 116.843 105.66 113.401 103.514C111.81 102.522 110.207 101.538 108.547 100.657L108.69 100.899L109.002 96.3218L109.503 88.9695C109.542 88.3947 109.581 87.8199 109.62 87.2451C109.769 85.0799 109.702 82.9057 109.42 80.7532C109.122 78.4883 108.553 76.2585 108.053 74.0299L106.678 67.9019L106.652 67.785C106.573 67.4319 106.019 67.5813 106.098 67.9344L106.098 67.9344Z" fill="black"/>
<path d="M125.276 111.793L124.412 113.122L122.347 116.296L119.838 120.152L117.678 123.474C117.327 124.013 116.939 124.542 116.62 125.1C116.615 125.108 116.61 125.115 116.605 125.123C116.406 125.429 116.903 125.711 117.101 125.406L117.966 124.077L120.03 120.904L122.539 117.047L124.7 113.726C125.05 113.187 125.438 112.657 125.757 112.1C125.762 112.092 125.767 112.084 125.773 112.076C125.972 111.77 125.475 111.488 125.276 111.793L125.276 111.793Z" fill="black"/>
<path d="M91.7044 71.6722L90.6701 76.6193L89.9633 80C89.8471 80.5558 89.7075 81.1122 89.6199 81.6733C89.5176 82.3165 89.55 82.9734 89.7151 83.604C89.7924 83.8706 89.884 84.133 89.9895 84.3902L90.5571 85.8703C90.6857 86.2058 91.2414 86.0605 91.1111 85.7209L90.6223 84.4462C90.3725 83.7946 90.1401 83.1583 90.1339 82.4492C90.1278 81.7585 90.327 81.0601 90.4678 80.3866L91.8626 73.7147L92.2584 71.8217C92.3322 71.4687 91.7785 71.3176 91.7044 71.6723L91.7044 71.6722Z" fill="black"/>
<path d="M74.8084 40.4502C74.9914 39.5722 74.9821 38.6663 74.7811 37.7922C74.5757 36.9143 74.0797 36.1274 73.3701 35.5535C72.7405 35.0677 72.0484 34.891 71.3327 34.7295C70.9978 34.6539 70.6576 34.5816 70.3163 34.4826C69.0111 34.1038 67.7222 33.6483 66.443 33.1934C64.2866 32.4263 62.1573 31.5829 60.0772 30.6348C57.0626 29.2607 54.1221 27.6721 51.4653 25.706C48.8962 23.8048 47.2587 21.7618 45.6181 19.1642C44.9882 18.1668 44.7393 16.9012 43.8174 16.1519C43.4581 15.8658 43.0289 15.6758 42.5719 15.6007C41.8329 15.4832 41.0749 15.5816 40.3928 15.8836C37.8015 17.0118 36.5277 19.9717 35.2857 22.2856C33.9148 24.8216 32.7658 27.4665 31.8513 30.192C31.1507 32.286 30.6204 34.4308 30.2654 36.6065C29.9394 38.6337 29.4999 40.8497 29.9254 42.871C30.0958 43.6805 30.3674 44.4875 30.8762 45.1474C31.385 45.8074 32.1606 46.306 33.005 46.3407C34.1024 46.3859 35.0628 45.6812 35.9513 45.0496C36.293 44.7894 36.6648 44.5695 37.059 44.3943C39.9708 43.2137 43.1359 42.5291 46.2376 42.053C53.5612 40.9289 61.2007 41.3289 68.388 43.0093L69.548 43.2805C70.7177 43.554 72.0242 43.8102 73.063 43.2174C74.0776 42.6385 74.6046 41.5326 74.8084 40.4502Z" fill="white"/>
<path d="M75.0851 40.5249C75.4387 38.5951 75.0996 36.3558 73.324 35.1742C72.4615 34.6002 71.4129 34.5001 70.435 34.2237C69.3335 33.9125 68.2511 33.535 67.1731 33.1544C62.9739 31.6719 58.8351 29.9621 55.005 27.7017C53.2233 26.6502 51.4747 25.4923 49.9538 24.0967C48.5914 22.8177 47.3924 21.3823 46.3828 19.8216C46.1291 19.4395 45.8669 19.0573 45.6532 18.6519C45.447 18.2606 45.279 17.8518 45.0891 17.453C44.7082 16.6531 44.1957 15.9069 43.3421 15.5401C41.5569 14.7729 39.6078 15.7131 38.3391 16.9646C37.1385 18.1487 36.3385 19.657 35.5711 21.1277C34.6256 22.9398 33.6857 24.7449 32.8907 26.627C32.0159 28.6858 31.2952 30.8042 30.7344 32.9652C30.4563 34.0466 30.2235 35.138 30.0362 36.2392C29.8581 37.2941 29.6746 38.3513 29.5587 39.4148C29.4215 40.4841 29.4317 41.5666 29.5891 42.6333C29.7509 43.6021 30.0672 44.5887 30.692 45.3709C31.2496 46.0688 32.0841 46.5832 33.0046 46.6217C34.0225 46.6644 34.9324 46.1091 35.7282 45.5526C36.1437 45.2305 36.588 44.9456 37.0557 44.7014C37.5633 44.4799 38.0823 44.2842 38.6106 44.115C39.6359 43.7638 40.6802 43.4668 41.7343 43.2106C43.9092 42.6874 46.1162 42.3009 48.3417 42.0536C52.8237 41.5564 57.3504 41.5824 61.8262 42.1313C64.064 42.4055 66.2844 42.802 68.4769 43.319C69.4769 43.5528 70.5014 43.8575 71.538 43.8587C72.4703 43.8802 73.3663 43.5056 73.9944 42.8316C74.5655 42.1739 74.9426 41.3765 75.085 40.5249C75.1536 40.1715 74.5999 40.0201 74.5309 40.3756C74.37 41.2049 74.0412 42.0323 73.4012 42.6216C72.7041 43.2636 71.7876 43.3681 70.8719 43.2527C69.8365 43.1223 68.8207 42.8137 67.8043 42.588C66.7418 42.3523 65.6732 42.1449 64.5987 41.9661C60.2819 41.2402 55.8954 40.9915 51.5218 41.2245C49.354 41.3476 47.1954 41.5934 45.0567 41.9605C42.9258 42.3045 40.825 42.8082 38.773 43.467C37.7886 43.7925 36.7896 44.1196 35.9376 44.7141C35.1653 45.2529 34.3506 45.9307 33.3735 46.0473C32.4865 46.1531 31.654 45.6762 31.1239 45.0056C30.511 44.2303 30.231 43.2011 30.1076 42.2433C29.9988 41.2206 30.0168 40.1888 30.1613 39.1703C30.2881 38.1143 30.4681 37.06 30.6557 36.0127C31.0434 33.8759 31.5979 31.7712 32.3143 29.7171C33.0154 27.7042 33.848 25.7373 34.8069 23.8287C35.2181 23.007 35.6564 22.1986 36.0817 21.3838C36.4567 20.6655 36.837 19.9486 37.2684 19.2606C38.0989 17.9363 39.2056 16.5824 40.7541 16.0432C41.6501 15.7312 42.729 15.7222 43.5264 16.2853C44.2256 16.7789 44.5442 17.6284 44.8828 18.3692C45.2803 19.1841 45.7506 19.963 46.2884 20.6969C46.7886 21.4214 47.3265 22.1203 47.9 22.7908C49.1382 24.2015 50.5534 25.4537 52.1121 26.518C55.5922 28.949 59.4798 30.7976 63.4339 32.364C65.4905 33.1788 67.5812 33.9433 69.6991 34.5921C70.2374 34.757 70.7787 34.891 71.3276 35.0166C71.7812 35.1046 72.2226 35.2449 72.6424 35.4344C73.4619 35.8593 74.0819 36.5773 74.373 37.4385C74.6838 38.3878 74.7383 39.3996 74.5312 40.3755C74.4663 40.7291 75.0199 40.8808 75.0851 40.5249Z" fill="black"/>
<path d="M41.0406 25.4172C40.9267 25.4806 40.8087 25.5368 40.6875 25.5855C39.9641 25.8563 39.2227 26.0787 38.4684 26.2511C36.8591 26.6203 35.2067 26.7783 33.5547 26.721C33.2014 26.6967 32.8512 26.639 32.5093 26.5487L30.8118 26.1573C30.4743 26.0795 30.1093 26.0036 29.7901 26.1361C29.1791 26.3896 29.0152 27.3595 28.809 27.9066C28.5044 28.7147 28.0956 29.3154 28.0936 30.2338C28.0718 30.4542 28.1348 30.6745 28.2702 30.8519C28.3712 30.9445 28.4907 31.0157 28.6211 31.061C30.57 31.8889 32.6172 33.3289 34.216 34.7293C35.1883 35.5859 36.0859 36.5203 36.8995 37.5227C37.0217 37.6736 37.1435 37.8255 37.2627 37.9791C38.5025 35.9422 39.4324 33.7397 40.0231 31.4407C40.5325 29.464 40.8728 27.4492 41.0406 25.4172Z" fill="#458DC9"/>
<path d="M40.8961 25.1747C40.4536 25.3887 39.9905 25.5595 39.5136 25.6843C39.0257 25.8303 38.532 25.9553 38.0323 26.0591C37.0191 26.2706 35.9894 26.3973 34.9543 26.4378C34.4475 26.4656 33.9395 26.4638 33.433 26.4327C32.9171 26.3666 32.407 26.2625 31.9071 26.1213C31.402 25.9805 30.8882 25.8711 30.369 25.7936C29.9746 25.7378 29.5764 25.8667 29.2941 26.1417C28.8153 26.6315 28.7237 27.3566 28.4808 27.9649C28.169 28.7456 27.7514 29.4995 27.8103 30.3669C27.794 30.8168 28.0986 31.2178 28.5438 31.3325C28.9707 31.5173 29.3877 31.7233 29.7957 31.9453C30.6595 32.4202 31.4895 32.9515 32.28 33.5358C34.0672 34.8431 35.6607 36.3862 37.015 38.121C37.0682 38.205 37.1621 38.2561 37.2631 38.2561C37.3642 38.2561 37.458 38.205 37.5112 38.121C39.3356 35.1698 40.3978 31.8346 40.9508 28.4431C41.1145 27.4394 41.2368 26.4295 41.3284 25.4172C41.361 25.0571 40.7862 25.0592 40.7538 25.4172C40.4453 28.8266 39.7598 32.2406 38.3271 35.3801C37.9421 36.2249 37.5039 37.0455 37.015 37.8373H37.5112C36.3491 36.338 35.0114 34.977 33.5254 33.7821C32.0809 32.5918 30.4805 31.5952 28.7665 30.8185C28.5807 30.7375 28.4356 30.6721 28.3963 30.4619C28.3652 30.2435 28.3714 30.0215 28.4146 29.805C28.493 29.4182 28.6192 29.0421 28.7905 28.6852C28.9426 28.3541 29.0763 28.0152 29.1909 27.6699C29.2709 27.3657 29.3824 27.0703 29.5236 26.7881C29.6523 26.4905 29.9663 26.3116 30.2945 26.3489C30.782 26.3843 31.2796 26.5537 31.7544 26.6632C32.2536 26.795 32.7599 26.9002 33.2708 26.9781C33.7618 27.0238 34.2555 27.0334 34.7479 27.0068C35.8626 26.9745 36.9723 26.847 38.0644 26.6259C38.6043 26.5168 39.1382 26.3835 39.6663 26.2262C40.1908 26.087 40.6999 25.8973 41.1861 25.6599C41.5113 25.4876 41.2216 25.0023 40.8961 25.1747Z" fill="black"/>
<path d="M40.928 20.8614C41.1729 23.5676 40.9851 26.2947 40.3713 28.9444C39.7589 31.6534 38.8464 34.2891 37.65 36.8047C36.9948 38.1964 36.2667 39.5542 35.4685 40.8726C35.3944 41.006 35.442 41.1729 35.5761 41.2495C35.7101 41.3261 35.8821 41.2848 35.9647 41.1562C37.4168 38.7643 38.6319 36.2421 39.5934 33.6241C40.5787 30.9844 41.2207 28.2339 41.5044 25.4376C41.6521 23.9156 41.6515 22.3833 41.5026 20.8614C41.4666 20.5049 40.8916 20.5012 40.928 20.8614V20.8614Z" fill="black"/>
<path d="M96.9605 43.9373L94.3749 51.9915C94.2491 51.9816 92.8753 52.0851 92.7468 52.0851C90.5857 52.085 88.704 53.5284 88.1893 55.5811C87.6746 57.6338 88.66 59.7647 90.576 60.7424L87.439 71.3647C87.439 71.3647 108.891 73.4176 110.982 76.1764C111.119 68.5939 110.762 49.5818 110.762 49.5818C110.342 47.2476 109.591 46.5215 108.016 46.3509L97.853 44.2966" fill="white"/>
<path d="M96.6834 43.8626L95.8082 46.5888L94.4196 50.9144L94.0978 51.9168L94.3748 51.7106C94.0718 51.7097 93.7691 51.7262 93.4681 51.7599C93.1558 51.7805 92.8444 51.7953 92.532 51.809C90.2831 51.9036 88.3788 53.4618 87.887 55.6099C87.3951 57.758 88.4381 59.9616 90.431 60.985L90.2989 60.6677L89.2363 64.2658L87.55 69.9761L87.1619 71.2901C87.1398 71.3745 87.1585 71.4642 87.2124 71.5335C87.2664 71.6028 87.3499 71.6442 87.439 71.6458C88.1491 71.7138 88.8585 71.7903 89.5676 71.8682C91.2885 72.0573 93.0071 72.2651 94.7235 72.4917C96.8824 72.778 99.0378 73.0945 101.183 73.4679C103.17 73.8139 105.158 74.1972 107.103 74.7308C107.847 74.9267 108.579 75.1664 109.293 75.4486C109.324 75.4609 109.297 75.4496 109.35 75.472C109.39 75.4891 109.431 75.5064 109.471 75.524C109.54 75.5545 109.61 75.5859 109.678 75.6182C109.805 75.6778 109.93 75.7408 110.053 75.8087C110.161 75.8688 110.268 75.9326 110.37 76.0021C110.394 76.0181 110.417 76.0345 110.44 76.0509C110.507 76.0975 110.435 76.0456 110.462 76.0667C110.503 76.0987 110.543 76.1309 110.581 76.1652C110.617 76.1969 110.651 76.2298 110.684 76.2643C110.722 76.3046 110.769 76.3647 110.733 76.3183C110.801 76.4238 110.932 76.4736 111.055 76.441C111.178 76.4084 111.265 76.3011 111.269 76.1765C111.296 74.6634 111.301 73.15 111.3 71.6368C111.3 69.7667 111.291 67.8966 111.274 66.0266C111.258 64.0894 111.238 62.1523 111.213 60.2153C111.191 58.4681 111.167 56.7209 111.14 54.9737C111.12 53.7051 111.099 52.4366 111.078 51.168C111.069 50.6443 111.088 50.1109 111.049 49.5881C110.999 49.142 110.895 48.7032 110.74 48.2808C110.61 47.8546 110.406 47.4532 110.138 47.0939C109.621 46.4349 108.895 46.2013 108.087 46.0782C108.012 46.0668 108.117 46.0842 108.083 46.0783C108.073 46.0764 108.063 46.0741 108.052 46.072C108.01 46.0637 107.968 46.055 107.926 46.0465L107.454 45.951L105.81 45.6188L101.27 44.7011L98.0949 44.0592L97.9293 44.0257C97.5684 43.9528 97.4141 44.4943 97.7766 44.5676L100.04 45.0251L104.537 45.9341L107.742 46.582C108.155 46.6655 108.58 46.6921 108.968 46.8702C109.716 47.2142 110.059 47.9616 110.269 48.7026C110.386 49.0531 110.457 49.4168 110.478 49.7847C110.484 50.0724 110.489 50.3602 110.494 50.6479C110.514 51.7832 110.533 52.9185 110.551 54.0539C110.577 55.7018 110.601 57.3497 110.623 58.9976C110.648 60.906 110.67 62.8144 110.688 64.7229C110.706 66.6088 110.718 68.4948 110.724 70.3808C110.728 71.9945 110.728 73.6083 110.708 75.222C110.705 75.5401 110.7 75.8583 110.694 76.1764L111.23 76.0346C110.906 75.6574 110.497 75.3594 110.035 75.1645C109.377 74.8587 108.695 74.604 107.997 74.4025C106.109 73.8563 104.19 73.4177 102.25 73.0891C100.074 72.6911 97.8849 72.3592 95.6925 72.0596C93.841 71.8066 91.9864 71.5763 90.1288 71.3686C89.5285 71.3011 88.9279 71.2361 88.327 71.1734C88.0453 71.1284 87.7611 71.0996 87.476 71.0874C87.4636 71.0868 87.4512 71.0856 87.4389 71.0838L87.7159 71.4394L88.7785 67.8414L90.465 62.131L90.853 60.8171C90.8862 60.6943 90.8324 60.5649 90.721 60.4998C88.9772 59.617 88.0412 57.7123 88.426 55.8293C88.8107 53.9463 90.4233 52.5395 92.38 52.3799C92.726 52.3537 93.075 52.3478 93.4216 52.3248C93.738 52.2892 94.0563 52.2717 94.3748 52.2725C94.5036 52.271 94.6161 52.1872 94.6518 52.0662L95.527 49.34L96.9157 45.0144L97.2375 44.0119C97.3485 43.6661 96.794 43.5181 96.6834 43.8626V43.8626Z" fill="black"/>
<path d="M112.954 58.4535L113.613 70.1316C113.81 73.6195 114.639 77.0455 116.059 80.2504L118.808 86.45L97.4512 85.057L97.0683 67.561C96.9965 64.2791 97.6482 61.0205 98.979 58.0068L104.907 44.582L105.059 43.1507L105.81 43.1503C107.122 43.1495 108.378 43.6759 109.282 44.6062L109.95 45.2928L106.25 52.4597" fill="#95D87A"/>
<path d="M112.666 58.4537L112.872 62.0982L113.218 68.2255C113.325 70.1112 113.429 71.9869 113.775 73.8509C114.145 75.8403 114.722 77.7874 115.498 79.6616C115.761 80.2971 116.047 80.9239 116.326 81.5529L118.508 86.4769L118.559 86.592L118.808 86.1692L116.676 86.0302L111.581 85.6978L105.42 85.296L100.075 84.9474L98.3161 84.8327C98.0412 84.7996 97.7646 84.7816 97.4875 84.7786C97.4753 84.7785 97.463 84.7777 97.4508 84.7762L97.7381 85.0572L97.6955 83.1085L97.5954 78.5354L97.4785 73.1935L97.3854 68.9383C97.3631 67.9198 97.3274 66.9016 97.3816 65.8833C97.531 63.182 98.1711 60.5283 99.2718 58.0464L100.498 55.269L102.602 50.5056L104.509 46.1869L105.042 44.9791C105.077 44.8992 105.113 44.8194 105.148 44.7394C105.212 44.5315 105.244 44.3157 105.246 44.0987L105.346 43.1507L105.059 43.4317C105.357 43.4315 105.655 43.4249 105.952 43.4333C106.597 43.4517 107.23 43.6066 107.808 43.8873C108.593 44.2713 109.153 44.8811 109.746 45.4915L109.701 45.151L108.449 47.578L106.462 51.4267L106.002 52.3179C105.835 52.64 106.331 52.9248 106.498 52.6016L107.751 50.1746L109.737 46.326L110.198 45.4347C110.26 45.3238 110.242 45.1861 110.153 45.0943C109.51 44.433 108.893 43.776 108.035 43.3719C107.417 43.0796 106.745 42.9109 106.059 42.8758C105.727 42.859 105.392 42.8696 105.059 42.8698C104.902 42.8738 104.776 42.9973 104.772 43.1508L104.666 44.1392C104.638 44.2803 104.623 44.4236 104.621 44.5673C104.625 44.6105 104.697 44.3731 104.645 44.4705C104.509 44.7281 104.407 45.0093 104.29 45.2753L102.577 49.1545L100.425 54.0266L98.9112 57.4557C98.0432 59.3641 97.4251 61.372 97.0714 63.4319C96.8325 65.0329 96.7403 66.6515 96.796 68.2686L96.877 71.9696L96.9923 77.2371L97.1002 82.1677L97.1606 84.9289L97.1634 85.0571C97.167 85.2108 97.2936 85.3345 97.4507 85.338L99.5822 85.4771L104.677 85.8094L110.838 86.2112L116.183 86.5598L117.942 86.6745C118.217 86.6925 118.495 86.7264 118.771 86.7286C118.783 86.7287 118.795 86.7302 118.807 86.731C119.048 86.7467 119.134 86.4859 119.055 86.3082L117.118 81.937C116.852 81.3375 116.586 80.7379 116.32 80.1384C114.913 76.959 114.093 73.5609 113.899 70.1017C113.873 69.6521 113.848 69.2025 113.822 68.7528L113.488 62.8395C113.407 61.4014 113.343 59.9614 113.245 58.5243C113.243 58.5008 113.242 58.4772 113.241 58.4537C113.22 58.0941 112.646 58.0918 112.666 58.4537L112.666 58.4537Z" fill="black"/>
<path d="M74.7812 37.7923C74.5758 36.9145 74.0798 36.1276 73.3702 35.5537C72.7406 35.0678 72.0485 34.8911 71.3328 34.7296C70.9979 34.654 70.6577 34.5817 70.3164 34.4827C69.0112 34.1039 67.7223 33.6485 66.4431 33.1935C66.2176 33.1133 65.9925 33.0321 65.7677 32.9498C65.6627 34.3103 64.4332 38.9231 64.2397 39.3716C63.8272 40.2752 63.3428 41.1457 62.791 41.9752C64.6777 42.2335 66.5478 42.5792 68.3881 43.0094L69.5481 43.2806C70.7178 43.554 72.0243 43.8103 73.0631 43.2175C74.0777 42.6387 74.6047 41.5327 74.8086 40.4503C74.9915 39.5724 74.9822 38.6665 74.7812 37.7923Z" fill="#9C8629"/>
<path d="M75.0581 37.7174C74.7302 36.4563 73.9109 35.3451 72.6646 34.8296C72.0115 34.5593 71.3105 34.4532 70.6288 34.2763C69.8643 34.0779 69.1124 33.8216 68.3656 33.5683C67.5215 33.2819 66.6813 32.9836 65.844 32.6788C65.7577 32.6567 65.6658 32.6748 65.5948 32.7276C65.5238 32.7805 65.4816 32.8624 65.4804 32.9497C65.4302 33.4188 65.3513 33.8845 65.2442 34.3444C65.1085 34.9923 64.9559 35.6369 64.7967 36.2797C64.555 37.255 64.3324 38.2551 63.9971 39.2051C63.8504 39.5806 63.6738 39.9442 63.4688 40.2926C63.1812 40.8179 62.8631 41.3265 62.5428 41.8332C62.4985 41.9087 62.4922 41.9999 62.5257 42.0805C62.5592 42.1611 62.6289 42.2222 62.7145 42.246C63.9513 42.4162 65.1819 42.6232 66.4063 42.8671C67.6006 43.106 68.7783 43.4128 69.9697 43.663C70.9922 43.8776 72.1146 44.0093 73.082 43.5271C73.9443 43.0974 74.5178 42.2769 74.8421 41.4072C75.273 40.2227 75.348 38.9423 75.058 37.7174C74.9724 37.3658 74.4183 37.5147 74.504 37.8668C74.7411 38.8997 74.6984 39.9752 74.3803 40.987C74.1273 41.8044 73.6413 42.5911 72.8553 43.0094C72.0015 43.4637 70.955 43.3 70.0506 43.1058C68.9396 42.8673 67.8395 42.5848 66.7255 42.3588C65.447 42.0995 64.161 41.8812 62.8672 41.7041L63.0389 42.1168C63.5833 41.2554 64.1488 40.3766 64.5239 39.4283C64.6404 39.1057 64.74 38.7774 64.8222 38.4448C65.1701 37.1977 65.4879 35.9403 65.7597 34.6751C65.8955 34.1067 65.9941 33.5304 66.0549 32.9497L65.6912 33.2206C67.0872 33.7288 68.4894 34.2297 69.9139 34.6572C71.1792 35.037 72.6133 35.1122 73.5678 36.1142C74.0251 36.6124 74.3471 37.2151 74.504 37.8668C74.5951 38.2171 75.1494 38.0686 75.0581 37.7174Z" fill="black"/>
<path d="M23.1572 32.8164C18.8024 33.4901 14.7171 34.494 10.1792 34.9797C10.6137 37.7703 10.7915 39.212 11.1191 42.0166L-10.9922 41.0916C-7.24635 40.5458 -3.48899 40.0427 0.213724 39.2537C1.16284 39.0514 2.10732 38.8297 3.04716 38.5886C3.77873 38.3999 5.18467 38.2747 5.77672 37.8202C6.27729 37.4359 5.93783 36.076 5.87696 35.4422C5.78415 34.4759 5.64921 33.5147 5.47215 32.5586C5.3391 31.9643 5.25622 31.3603 5.22433 30.7527L23.1572 32.8164Z" fill="white"/>
<path d="M23.0808 32.5455C19.7427 33.0636 16.4438 33.7955 13.1054 34.3119C12.133 34.4623 11.1578 34.5932 10.1792 34.6987C10.0905 34.7013 10.0077 34.7428 9.95388 34.8119C9.90009 34.8809 9.88109 34.9701 9.90217 35.0544C10.2622 37.3694 10.5599 39.6902 10.8318 42.0166L11.1191 41.7356L8.90807 41.6431L3.64422 41.4229L-2.76307 41.1549L-8.26509 40.9247L-10.0915 40.8483C-10.3787 40.8204 -10.6672 40.8083 -10.9557 40.8122C-10.9679 40.8123 -10.9801 40.8118 -10.9922 40.8106L-10.9158 41.3625C-7.25492 40.8294 -3.58375 40.3364 0.0375481 39.578C0.931906 39.3906 1.82231 39.1863 2.70875 38.965C3.34605 38.8052 3.9912 38.6995 4.63162 38.5549C5.13095 38.4421 5.86339 38.2911 6.14883 37.8225C6.44062 37.3434 6.33551 36.6857 6.26415 36.1632C6.15467 35.3618 6.07603 34.5572 5.95958 33.7567C5.81456 32.76 5.53574 31.7615 5.51165 30.7527L5.22434 31.0336L7.00152 31.2381L11.2924 31.732L16.4642 32.3271L20.9537 32.8438L22.4265 33.0133C22.6571 33.0398 22.8941 33.0854 23.1263 33.0938C23.1366 33.0942 23.147 33.0962 23.1572 33.0974C23.3155 33.0964 23.4435 32.9712 23.4445 32.8164C23.4411 32.6627 23.3144 32.5389 23.1572 32.5354L21.3801 32.3309L17.0892 31.8371L11.9173 31.242L7.42786 30.7253L5.95509 30.5558C5.72446 30.5292 5.4874 30.4836 5.25519 30.4752C5.24494 30.4749 5.23451 30.4728 5.2243 30.4717C5.06605 30.4727 4.93801 30.5979 4.93701 30.7526C4.95779 31.622 5.1768 32.4748 5.31656 33.3302C5.44443 34.1129 5.51191 34.9005 5.61966 35.6852C5.69075 36.2029 5.83081 36.7673 5.73723 37.2897C5.72011 37.4703 5.6048 37.628 5.43549 37.7022C5.17042 37.8314 4.88933 37.9266 4.59924 37.9851C4.00474 38.1278 3.39755 38.209 2.80487 38.3601C1.94784 38.5787 1.08656 38.7802 0.221004 38.9648C-1.53105 39.3403 -3.29681 39.6514 -5.06702 39.9326C-7.06423 40.2498 -9.06741 40.5292 -11.0687 40.8206C-11.4013 40.8691 -11.3008 41.3596 -10.9923 41.3725L-8.78125 41.465L-3.51743 41.6852L2.88987 41.9533L8.3918 42.1834C9.28431 42.2208 10.1888 42.3039 11.0825 42.296C11.0946 42.2959 11.107 42.297 11.119 42.2975C11.2775 42.2971 11.4058 42.1715 11.4063 42.0166C11.1286 39.6403 10.8239 37.2696 10.4562 34.905L10.1791 35.2606C13.6072 34.891 16.9798 34.1926 20.3668 33.5752C21.3203 33.4014 22.2755 33.236 23.2335 33.0873C23.5978 33.0308 23.4431 32.4892 23.0808 32.5455Z" fill="white"/>
<path d="M23.2314 40.8129C20.7383 43.0538 18.561 45.394 15.869 47.5907C17.3597 49.1954 18.1 50.0439 19.5284 51.7019L4.98096 60.3C7.14013 58.394 9.32521 56.5105 11.3511 54.4668C11.8704 53.943 12.3782 53.4086 12.8746 52.8637C13.2607 52.4389 14.1057 51.7745 14.2869 51.2377C14.4402 50.7838 13.632 50.0549 13.3176 49.6747C12.8383 49.0951 12.3343 48.5363 11.8055 47.9982C11.4621 47.6733 11.1466 47.3213 10.8621 46.9459L23.2314 40.8129Z" fill="white"/>
<path d="M23.0281 40.6142C20.5474 42.8469 18.255 45.2746 15.6657 47.392C15.5557 47.5026 15.5557 47.6787 15.6657 47.7893C16.9153 49.1351 18.1275 50.5105 19.3251 51.9005L19.3832 51.4592L17.9366 52.3142L14.4626 54.3675L10.2595 56.8517L6.62596 58.9993L5.42855 59.707C5.23249 59.8077 5.04278 59.9198 4.86045 60.0428C4.85253 60.0481 4.84428 60.053 4.83576 60.0573L5.18393 60.4986C7.27075 58.6569 9.38095 56.8361 11.349 54.8712C11.8332 54.3877 12.308 53.8954 12.7732 53.3942C13.1393 52.9989 13.5301 52.6327 13.9049 52.246C14.196 51.9457 14.6071 51.5329 14.5922 51.0858C14.5774 50.6387 14.2037 50.2382 13.9204 49.9207C13.4923 49.4411 13.0817 48.9469 12.6473 48.4726C12.1397 47.9184 11.548 47.4145 11.1101 46.8039L11.007 47.1884L15.1825 45.118L21.842 41.8161L23.3762 41.0554C23.7061 40.8918 23.4156 40.4068 23.0862 40.5701L18.9107 42.6404L12.2512 45.9425L10.717 46.7032C10.5806 46.782 10.5346 46.9536 10.6139 47.0877C10.9974 47.6225 11.4864 48.0681 11.9385 48.5453C12.3652 48.9957 12.7612 49.469 13.1679 49.9362C13.4422 50.2514 13.7874 50.5488 13.9654 50.9313C14.126 51.2765 13.7213 51.6189 13.4986 51.8487C13.1525 52.206 12.7874 52.5407 12.4503 52.9066C12.0061 53.3887 11.5525 53.8622 11.0893 54.327C10.1532 55.2685 9.18283 56.177 8.19771 57.0692C7.06868 58.0917 5.92006 59.0931 4.77772 60.1013C4.53437 60.3161 4.84839 60.7066 5.12588 60.5426L6.57246 59.6876L10.0465 57.6343L14.2496 55.1501L17.8831 53.0025C18.4702 52.6557 19.0753 52.3274 19.6486 51.959C19.6567 51.9539 19.6651 51.9493 19.6733 51.9444C19.7487 51.8993 19.7991 51.8232 19.8104 51.7374C19.8217 51.6517 19.7927 51.5655 19.7315 51.5032C18.5338 50.1132 17.3217 48.7378 16.0721 47.392V47.7894C18.6614 45.672 20.9538 43.2443 23.4345 41.0115C23.7071 40.7661 23.2999 40.3695 23.0281 40.6142Z" fill="white"/>
<path d="M22.7536 24.1309C19.6698 22.7629 16.6161 21.718 13.4962 20.1538C12.5686 22.123 12.0595 23.121 11.0575 25.0549L-2.72217 15.3221C-0.0841579 16.5205 2.54279 17.7509 5.25829 18.7754C5.95434 19.0381 6.65583 19.2863 7.36276 19.5201C7.91346 19.7015 8.86912 20.2024 9.44525 20.1556C9.93235 20.1161 10.3024 19.1037 10.5372 18.6721C10.8954 18.0141 11.2243 17.3419 11.5239 16.6556C11.6955 16.2195 11.9034 15.7979 12.1455 15.3951L22.7536 24.1309Z" fill="white"/>
<path d="M22.8986 23.8883C19.8273 22.5284 16.6463 21.414 13.6411 19.9112C13.5038 19.8347 13.3292 19.8795 13.248 20.012C12.47 21.6629 11.6494 23.2917 10.8094 24.9131L11.2025 24.8123L9.83228 23.8445L6.54155 21.5202L2.56029 18.7083L-0.881481 16.2772L-2.01571 15.4761C-2.18722 15.3391 -2.36691 15.2122 -2.55385 15.096C-2.56197 15.091 -2.56977 15.0855 -2.57723 15.0795L-2.86726 15.5648C-0.283554 16.7388 2.28986 17.9413 4.94477 18.9564C5.61166 19.2114 6.28352 19.4534 6.96035 19.6824C7.47036 19.8544 7.96036 20.0712 8.46784 20.2486C8.86139 20.3863 9.39394 20.5627 9.78435 20.3305C10.1642 20.1045 10.3776 19.6466 10.5612 19.2694C10.8342 18.7086 11.1365 18.1622 11.4055 17.5993C11.7328 16.9143 11.9833 16.1804 12.3936 15.5368L11.9424 15.5937L15.5233 18.5427L21.2347 23.2461L22.5504 24.3296C22.8316 24.5611 23.2401 24.1656 22.9567 23.9323L19.3758 20.9833L13.6645 16.2799L12.3487 15.1964C12.2849 15.1366 12.1969 15.1082 12.1092 15.1193C12.0216 15.1303 11.9437 15.1796 11.8975 15.2532C11.5507 15.7972 11.3309 16.4069 11.0626 16.9891C10.8079 17.5418 10.5195 18.0756 10.2435 18.6178C10.0596 18.9794 9.91391 19.386 9.64835 19.7007C9.58554 19.8043 9.47418 19.8706 9.35121 19.8776C9.11035 19.8614 8.87375 19.8073 8.65058 19.7172C8.18652 19.5574 7.74203 19.3504 7.27606 19.1951C6.62421 18.9779 5.97708 18.7477 5.33465 18.5045C4.06634 18.026 2.81694 17.5015 1.57716 16.9565C0.185796 16.3449 -1.19379 15.7081 -2.57717 15.0795C-2.71358 15.0074 -2.88388 15.0541 -2.96213 15.185C-3.04038 15.3159 -2.99839 15.4839 -2.86721 15.5648L-1.49697 16.5326L1.79374 18.8569L5.775 21.6689L9.21678 24.0999L10.351 24.901C10.5286 25.0264 10.7024 25.1688 10.8891 25.2811C10.8972 25.286 10.9049 25.2921 10.9125 25.2976C11.0496 25.3751 11.225 25.3302 11.3056 25.1968C12.1456 23.5754 12.9662 21.9465 13.7442 20.2957L13.3511 20.3965C16.3563 21.8993 19.5373 23.0137 22.6086 24.3736C22.9428 24.5215 23.2352 24.0374 22.8986 23.8883Z" fill="white"/>
<path d="M104.622 58.7346L124.6 67.7235L127.309 68.8344C131.599 70.2607 137.271 70.7391 139.905 66.1605L149.124 51.3048C148.179 50.8992 143.111 49.7401 142.04 49.1109C140.101 47.9723 138.498 46.7519 137.563 45.7672L131.497 56.6062L112.842 46.335C111.653 45.6804 110.336 45.2781 108.978 45.1543L106.282 44.9087" fill="#95D87A"/>
<path d="M104.477 58.9771L107.029 60.1255L112.856 62.7475L119.359 65.6732L123.808 67.6752C124.878 68.1568 125.971 68.5879 127.058 69.0334C127.567 69.2293 128.09 69.3912 128.623 69.5179C129.38 69.7168 130.149 69.8687 130.925 69.9727C132.477 70.1778 134.083 70.1796 135.603 69.7728C137.121 69.3806 138.47 68.5223 139.451 67.3243C139.809 66.8531 140.137 66.361 140.433 65.8508L143.143 61.4838L146.851 55.5091L149.254 51.6365L149.372 51.4466C149.451 51.3125 149.405 51.1409 149.269 51.0621C148.734 50.8558 148.185 50.6839 147.627 50.5475C146.815 50.3218 146 50.1047 145.188 49.877C144.432 49.6649 143.674 49.4509 142.935 49.1884C142.143 48.9075 141.416 48.417 140.698 47.9371C139.635 47.2547 138.652 46.4604 137.766 45.5685C137.703 45.5078 137.614 45.4789 137.526 45.4899C137.438 45.501 137.36 45.5509 137.315 45.6254L135.27 49.2802L131.998 55.1271L131.249 56.4643L131.642 56.3635L129.027 54.9234L123.166 51.6968L116.916 48.2556L113.186 46.2022C112.204 45.6456 111.137 45.2467 110.025 45.0206C108.916 44.8076 107.763 44.7626 106.639 44.6602L106.282 44.6278C105.914 44.5942 105.916 45.1564 106.282 45.1897C107.166 45.2702 108.049 45.3507 108.933 45.4313C110.284 45.5594 111.593 45.9644 112.773 46.6198C113.869 47.2224 114.964 47.8256 116.06 48.4291L122.141 51.7773L128.187 55.1059C129.225 55.6777 130.253 56.2772 131.306 56.8234C131.322 56.8315 131.337 56.8405 131.352 56.849C131.49 56.9251 131.664 56.8804 131.746 56.7482L133.791 53.0934L137.063 47.2462L137.811 45.909L137.36 45.9658C138.131 46.7449 138.977 47.4483 139.888 48.0659C140.444 48.4569 141.014 48.8275 141.599 49.1777C141.876 49.3481 142.168 49.4944 142.471 49.615C143.966 50.2002 145.56 50.5632 147.108 50.9881C147.499 51.0958 147.891 51.2038 148.281 51.3196C148.428 51.3634 148.575 51.4081 148.721 51.4564C148.779 51.4756 148.837 51.4951 148.894 51.5159C148.918 51.5248 149.062 51.5823 148.979 51.5474L148.876 51.163L147.163 53.9237L143.588 59.6848L140.421 64.7877C140.181 65.1749 139.939 65.5612 139.7 65.9491C139.09 66.9404 138.369 67.8052 137.354 68.4255C134.718 70.0372 131.3 69.6808 128.448 68.8879C127.461 68.5866 126.494 68.2273 125.552 67.8119L124.908 67.5476C124.847 67.5227 124.786 67.4977 124.725 67.4728C124.682 67.4551 124.635 67.4257 124.743 67.4802C124.674 67.4457 124.603 67.4171 124.533 67.3858L120.882 65.7432L114.655 62.941L108.467 60.1567L104.935 58.5675L104.767 58.4919C104.433 58.3418 104.141 58.826 104.477 58.9772L104.477 58.9771Z" fill="black"/>
<path d="M149.078 51.3208C148.749 51.8562 147.164 51.5593 145.102 50.6748L146.337 47.9733C148.282 49.4241 149.424 50.757 149.078 51.3208Z" fill="black"/>
<path d="M148.83 51.1789C148.791 51.2387 148.854 51.1515 148.828 51.1839C148.816 51.1986 148.802 51.2117 148.787 51.2231C148.835 51.1877 148.739 51.2474 148.721 51.2558C148.763 51.2367 148.651 51.2754 148.631 51.2803C148.593 51.2897 148.555 51.2962 148.517 51.2997C148.249 51.3178 147.979 51.2981 147.717 51.2413C146.866 51.0614 146.037 50.79 145.247 50.4321L145.35 50.8166L146.585 48.115L146.192 48.2158C146.963 48.7675 147.669 49.4001 148.299 50.1022C148.497 50.3182 148.661 50.5612 148.786 50.8236C148.789 50.8306 148.815 50.9003 148.825 50.9315C148.833 50.9585 148.84 50.9857 148.846 51.0132C148.864 51.0942 148.846 50.9628 148.85 51.0411C148.852 51.0641 148.847 51.1735 148.854 51.106C148.851 51.1276 148.845 51.1487 148.837 51.1691C148.853 51.1259 148.846 51.1518 148.83 51.179C148.648 51.4943 149.144 51.7779 149.326 51.4626C149.641 50.9178 149.164 50.271 148.831 49.8558C148.172 49.0356 147.325 48.3614 146.482 47.7307C146.345 47.6524 146.169 47.6975 146.089 47.8315L144.854 50.533C144.777 50.6673 144.822 50.8377 144.957 50.9175C145.852 51.2994 146.789 51.6712 147.76 51.8166C148.275 51.8937 149 51.9608 149.326 51.4627C149.526 51.1569 149.029 50.8748 148.83 51.1789Z" fill="black"/>
<path d="M142.039 49.111C140.1 47.9724 138.497 46.752 137.562 45.7672L138.572 43.9696L140.06 41.3203L147.48 45.472L146.337 47.9733L145.102 50.6748C144.048 50.2168 143.025 49.6945 142.039 49.111Z" fill="white"/>
<path d="M142.184 48.8684C140.607 47.9391 139.029 46.8921 137.766 45.5686L137.811 45.9091L139.84 42.296L140.308 41.4622L139.915 41.563L142.415 42.9617L146.42 45.2029L147.335 45.7148L147.232 45.3303C146.598 46.7174 145.964 48.1045 145.33 49.4915L144.854 50.5331L145.247 50.4322C144.194 49.9736 143.171 49.4513 142.184 48.8684C141.866 48.6822 141.577 49.1679 141.894 49.3537C142.881 49.9366 143.904 50.4589 144.957 50.9175C145.094 50.9933 145.269 50.9487 145.35 50.8167C145.979 49.4415 146.607 48.0662 147.236 46.691L147.728 45.6139C147.804 45.4794 147.759 45.3102 147.625 45.2295L145.125 43.8308L141.12 41.5896L140.205 41.0777C140.068 41.0016 139.893 41.0463 139.812 41.1786C139.172 42.3183 138.532 43.458 137.892 44.5978L137.315 45.6255C137.252 45.7363 137.27 45.8743 137.359 45.9659C138.654 47.3222 140.277 48.4014 141.894 49.3536C142.212 49.5407 142.501 49.055 142.184 48.8684Z" fill="black"/>
<path d="M132.519 54.7808L129.492 60.2275L132.519 54.7808Z" fill="white"/>
<path d="M132.271 54.639L129.62 59.4099L129.244 60.0858C129.067 60.4036 129.563 60.6875 129.74 60.3694L132.391 55.5985L132.767 54.9226C132.944 54.6048 132.448 54.3208 132.271 54.639H132.271Z" fill="black"/>
<path d="M146.632 47.6674L148.936 41.4549C149.3 40.9336 149.581 40.3612 149.77 39.7573C150.199 38.3818 150.831 37.2127 152.053 36.4133L152.095 35.1741C152.095 35.1741 145.622 32.3926 145.035 32.7924L143.12 37.2877L142.845 34.192C142.82 33.9192 142.659 33.6757 142.415 33.542C142.171 33.4082 141.874 33.4015 141.624 33.524C141.363 33.6515 141.188 33.9014 141.16 34.1853L140.63 39.6291L139.524 42.2752" fill="white"/>
<path d="M146.909 47.7422L148.461 43.5565L149.175 41.6296C149.19 41.5965 149.207 41.5645 149.227 41.5339C149.465 41.146 149.678 40.7444 149.867 40.3314C150.165 39.6029 150.351 38.8558 150.762 38.1717C150.975 37.8125 151.235 37.4819 151.535 37.188C151.689 37.0371 151.855 36.8977 152.03 36.7708C152.182 36.6621 152.326 36.5995 152.341 36.3969C152.372 35.9913 152.369 35.5807 152.382 35.1741C152.384 35.0739 152.329 34.9808 152.24 34.9315C150.562 34.2105 148.861 33.515 147.126 32.9354C146.682 32.7794 146.23 32.6489 145.771 32.5445C145.512 32.49 145.134 32.3953 144.89 32.5498C144.797 32.6305 144.73 32.7369 144.699 32.8551L144.519 33.279L143.917 34.6916L142.843 37.2131L143.407 37.2878L143.156 34.4618C143.148 34.3179 143.133 34.1744 143.109 34.0321C143.017 33.606 142.677 33.2726 142.242 33.1808C141.806 33.0889 141.356 33.2557 141.092 33.6067C140.956 33.7982 140.878 34.0232 140.866 34.2561C140.766 35.2167 140.679 36.1786 140.585 37.1397C140.504 37.9664 140.461 38.8064 140.343 39.6288C140.365 39.4721 140.321 39.6294 140.303 39.6747L140.183 39.9606L139.808 40.8579L139.247 42.2006C139.206 42.35 139.295 42.504 139.447 42.5462C139.6 42.5837 139.756 42.4972 139.801 42.3499L140.841 39.8616C140.902 39.7005 140.936 39.531 140.943 39.3594L141.072 38.0392L141.392 34.7488C141.415 34.5155 141.394 34.198 141.52 33.9878C141.609 33.842 141.762 33.7447 141.934 33.7241C142.107 33.7035 142.279 33.7619 142.402 33.8824C142.512 34.006 142.572 34.1654 142.569 34.3298L142.832 37.2878C142.837 37.4254 142.943 37.5396 143.082 37.5581C143.222 37.5765 143.355 37.4939 143.397 37.3625L145.073 33.4284L145.312 32.8671L145.18 33.035C145.228 33.0045 145.099 33.0632 145.177 33.0366C145.23 33.0183 145.104 33.0302 145.193 33.0349C145.266 33.0387 145.338 33.0383 145.411 33.0471C145.328 33.0372 145.452 33.0545 145.469 33.0573C145.519 33.066 145.569 33.0759 145.619 33.0864C145.734 33.1106 145.848 33.1387 145.961 33.1687C146.533 33.3196 147.093 33.5127 147.649 33.7114C148.827 34.1327 150.023 34.611 151.155 35.0816C151.42 35.1921 151.686 35.3032 151.95 35.4167L151.808 35.1741L151.766 36.4133L151.908 36.1707C150.709 36.9669 149.994 38.163 149.554 39.4905C149.45 39.8335 149.321 40.1692 149.17 40.4952C149.087 40.6655 148.995 40.8319 148.896 40.9944C148.808 41.1182 148.728 41.2479 148.658 41.3825C148.608 41.4983 148.57 41.6204 148.526 41.7385L146.872 46.1967L146.355 47.5927C146.228 47.9332 146.783 48.0799 146.909 47.742L146.909 47.7422Z" fill="black"/>
<path d="M140.653 48.2466C141.579 48.9483 145.103 50.7185 145.103 50.7185L151.295 40.4091C151.337 40.3424 151.401 40.2924 151.477 40.2682C152.96 39.8722 152.691 39.8459 153.98 38.3342L154.825 36.5296C155.004 36.1605 155.039 35.7404 154.925 35.3475C154.615 34.3417 153.412 33.842 152.189 33.3181L147.072 31.2556" fill="white"/>
<path d="M140.508 48.4892C141.115 48.9144 141.753 49.296 142.417 49.6311C143.106 50.0072 143.802 50.3714 144.501 50.7292C144.653 50.8069 144.805 50.8843 144.958 50.9612C145.095 51.0362 145.269 50.9917 145.351 50.8603L147.446 47.3723L150.767 41.8435L151.282 40.9859C151.351 40.8404 151.434 40.7017 151.531 40.5718C151.618 40.478 151.842 40.4613 151.977 40.4213C152.236 40.3538 152.485 40.2551 152.719 40.1272C153.197 39.8436 153.514 39.3406 153.857 38.9236C154.032 38.7392 154.182 38.5338 154.305 38.3124L154.614 37.651C154.831 37.243 155.022 36.8222 155.186 36.391C155.779 34.5331 153.629 33.6017 152.242 33.0379C150.599 32.3698 148.951 31.7111 147.305 31.0478L147.149 30.9847C146.996 30.9446 146.838 31.032 146.795 31.181C146.757 31.3301 146.845 31.4823 146.996 31.5266L151.774 33.4524C152.111 33.5882 152.437 33.7259 152.768 33.8764C153.464 34.1922 154.362 34.6 154.63 35.3679C154.832 35.9461 154.551 36.4413 154.314 36.9497L153.962 37.7016C153.897 37.865 153.823 38.0244 153.738 38.1792C153.535 38.4591 153.315 38.7276 153.08 38.9833C152.93 39.184 152.761 39.3706 152.575 39.5405C152.425 39.6531 152.256 39.7406 152.076 39.7997C151.753 39.9113 151.316 39.9362 151.092 40.2105C150.861 40.534 150.654 40.8728 150.472 41.2244L147.292 46.5192L145.741 49.1018C145.46 49.5688 145.152 50.0289 144.896 50.5089C144.883 50.532 144.868 50.5542 144.855 50.5768L145.248 50.476C144.062 49.8801 142.881 49.2677 141.735 48.6003C141.411 48.4196 141.098 48.2205 140.798 48.004C140.661 47.9268 140.486 47.9717 140.405 48.1049C140.329 48.2394 140.374 48.4087 140.508 48.4893V48.4892Z" fill="black"/>
<path d="M146.373 35.8304C147.728 32.5156 148.453 30.704 149.378 28.8275C150.302 26.951 149.043 26.0164 147.663 27.6593C145.742 30.4525 143.184 37.0363 143.184 37.0363C143.184 37.0363 145.003 36.8407 146.307 37.9433" fill="white"/>
<path d="M146.65 35.9049C147.395 34.0844 148.119 32.2535 148.926 30.4584C149.076 30.124 149.23 29.7913 149.388 29.4602C149.608 29.06 149.784 28.6381 149.914 28.2017C150.068 27.5483 149.948 26.6129 149.101 26.5352C148.271 26.459 147.585 27.2412 147.192 27.8545C146.785 28.4899 146.424 29.153 146.078 29.8219C145.323 31.2845 144.649 32.7866 144.002 34.2977C143.625 35.1804 143.255 36.0671 142.907 36.9615C142.884 37.0461 142.902 37.1364 142.956 37.206C143.011 37.2757 143.095 37.3167 143.184 37.3172C144.231 37.2061 145.28 37.5024 146.104 38.1418C146.385 38.3742 146.793 37.9785 146.51 37.7445C145.579 36.9981 144.383 36.6425 143.185 36.7552L143.462 37.1108C144.264 35.047 145.146 33.0051 146.119 31.0132C146.458 30.3204 146.81 29.6334 147.192 28.9626C147.545 28.3433 147.901 27.6293 148.541 27.2488C148.753 27.1228 149.047 27.0121 149.24 27.166C149.41 27.3017 149.423 27.6279 149.398 27.8486C149.348 28.2762 149.141 28.6593 148.956 29.0425C148.801 29.3643 148.65 29.6878 148.503 30.013C147.645 31.9038 146.881 33.8352 146.096 35.7555C145.959 36.0912 146.514 36.237 146.65 35.9048L146.65 35.9049Z" fill="black"/>
<path d="M92.7466 49.8375L93.9199 44.3796C94.3064 43.2748 95.3684 42.5325 96.5624 42.5325H101.653L100.963 44.3293L96.9603 43.9373L94.9989 50.0468" fill="#95D87A"/>
<path d="M93.0236 49.9121L94.1182 44.8207C94.3098 43.6506 95.3508 42.7956 96.5624 42.8134C97.3308 42.8061 98.0996 42.8134 98.868 42.8134H101.653L101.376 42.4577L100.686 44.2546L100.963 44.0483L97.4688 43.7061L96.9603 43.6563C96.8313 43.6571 96.7184 43.7411 96.6833 43.8625L94.9649 49.215L94.7218 49.972C94.6108 50.3179 95.1653 50.4659 95.2759 50.1214L96.9942 44.769L97.2373 44.0119L96.9602 44.2182L100.455 44.5604L100.963 44.6102C101.092 44.6088 101.205 44.525 101.24 44.404L101.93 42.6071C101.953 42.5226 101.934 42.4325 101.88 42.363C101.826 42.2934 101.742 42.2523 101.653 42.2515C99.9619 42.2515 98.2706 42.2394 96.5799 42.2515C95.8239 42.2534 95.094 42.5214 94.5236 43.0065C94.0792 43.372 93.7629 43.8644 93.6192 44.4145L93.0293 47.1591L92.4695 49.7628C92.3937 50.1156 92.9474 50.2664 93.0236 49.9122V49.9121Z" fill="black"/>
<path d="M154.421 37.3796C153.904 38.4048 153.013 40.3018 152.516 41.0237C151.296 42.478 150.181 41.6507 150.999 39.9898C151.402 39.1726 151.762 38.3694 152.166 37.4148" fill="white"/>
<path d="M154.173 37.2378C153.593 38.3881 153.076 39.5843 152.397 40.6834C152.235 40.9506 152.012 41.1773 151.745 41.3458C151.646 41.411 151.535 41.458 151.419 41.4845C151.355 41.4973 151.288 41.4963 151.224 41.4818C151.198 41.4707 151.174 41.457 151.151 41.4408C151.126 41.4239 151.106 41.4012 151.092 41.3747C151.043 41.293 151.015 41.2011 151.009 41.1066C150.999 40.7887 151.071 40.4734 151.219 40.19C151.635 39.2923 152.056 38.4004 152.443 37.4896C152.484 37.3401 152.394 37.1861 152.242 37.144C152.09 37.1066 151.934 37.193 151.889 37.3402C151.513 38.2255 151.093 39.0883 150.696 39.9639C150.446 40.5149 150.218 41.3763 150.756 41.8476C151.293 42.3184 152.038 41.9022 152.463 41.4969C152.956 41.0272 153.246 40.3615 153.551 39.7679C153.933 39.0235 154.292 38.2685 154.669 37.5215C154.832 37.1983 154.337 36.9133 154.173 37.2379L154.173 37.2378Z" fill="black"/>
<path d="M152.926 36.6631C152.408 37.6883 151.517 39.5852 151.021 40.3072C149.8 41.7614 148.685 40.9342 149.504 39.2732C149.906 38.4561 150.266 37.6529 150.67 36.6983" fill="white"/>
<path d="M152.677 36.5213C152.097 37.6715 151.581 38.8678 150.901 39.9669C150.739 40.234 150.516 40.4608 150.249 40.6293C150.15 40.6945 150.04 40.7415 149.923 40.768C149.859 40.7807 149.793 40.7798 149.729 40.7653C149.703 40.7542 149.678 40.7404 149.656 40.7242C149.631 40.7074 149.61 40.6847 149.596 40.6581C149.547 40.5764 149.519 40.4846 149.513 40.3901C149.503 40.0721 149.576 39.7569 149.723 39.4734C150.139 38.5757 150.561 37.6838 150.947 36.773C150.988 36.6235 150.899 36.4695 150.746 36.4274C150.594 36.39 150.438 36.4764 150.393 36.6237C150.017 37.509 149.597 38.3717 149.201 39.2474C148.951 39.7983 148.722 40.6597 149.26 41.1311C149.797 41.6018 150.542 41.1856 150.967 40.7803C151.46 40.3106 151.751 39.6449 152.055 39.0514C152.437 38.3069 152.797 37.5519 153.174 36.805C153.337 36.4818 152.841 36.1967 152.677 36.5213L152.677 36.5213Z" fill="black"/>
<path d="M151.238 35.7839C150.72 36.8091 149.829 38.7061 149.333 39.428C148.112 40.8822 146.997 40.055 147.816 38.3941C148.156 37.7022 148.675 36.5895 149.071 35.6851C149.188 35.4178 149.087 35.107 148.833 34.9557" fill="white"/>
<path d="M150.99 35.6421C150.647 36.3227 150.318 37.01 149.973 37.6898C149.805 38.0203 149.635 38.3497 149.454 38.6738C149.316 38.9554 149.139 39.2169 148.928 39.4508C148.73 39.648 148.428 39.9196 148.119 39.8975C147.951 39.8855 147.857 39.7471 147.829 39.554C147.776 39.1899 147.931 38.8078 148.088 38.4868C148.27 38.1129 148.449 37.7375 148.624 37.3605C148.852 36.8726 149.075 36.3829 149.291 35.8902C149.48 35.461 149.416 34.9742 148.978 34.713C148.661 34.5242 148.372 35.0099 148.688 35.1982C148.824 35.2884 148.87 35.4634 148.795 35.6067C148.701 35.854 148.579 36.0943 148.469 36.3354C148.27 36.775 148.066 37.2129 147.859 37.6491C147.538 38.3234 147.025 39.1439 147.337 39.9092C147.614 40.5902 148.4 40.5499 148.932 40.1825C149.586 39.731 149.92 39.0349 150.272 38.3565C150.69 37.5525 151.078 36.7344 151.486 35.9257C151.649 35.6024 151.154 35.3174 150.99 35.642L150.99 35.6421Z" fill="black"/>
<path d="M100.598 24.4101L97.1384 23.8364C95.6133 23.5834 94.1136 24.4019 93.5329 25.8041L93.161 26.7023C92.9278 27.2654 92.3663 27.6318 91.7451 27.6263C89.9298 27.6101 88.3418 28.8175 87.9104 30.5419C87.6595 31.5449 87.8339 32.6045 88.394 33.4798C88.9542 34.3551 89.8524 34.9718 90.8846 35.1895L96.6763 36.4115" fill="#9C8629"/>
<path d="M100.674 24.1392L98.7516 23.8204C98.053 23.7045 97.3132 23.5132 96.6007 23.51C95.2116 23.511 93.9466 24.2923 93.3486 25.5185C93.1882 25.8579 93.0597 26.2123 92.9129 26.5574C92.7099 27.0445 92.2201 27.3581 91.6824 27.3453C90.3415 27.3629 89.0875 27.9978 88.2986 29.0584C87.523 30.1146 87.3052 31.4679 87.7115 32.7061C88.1179 33.9443 89.1003 34.9209 90.3596 35.3385C90.8752 35.4877 91.3993 35.6074 91.9291 35.697L96.4986 36.6611L96.5999 36.6824C96.9604 36.7585 97.1145 36.2169 96.7526 36.1406L92.8535 35.318L91.0562 34.9387C90.1009 34.7581 89.2565 34.2175 88.7053 33.4334C88.005 32.4201 87.8885 31.1252 88.397 30.0078C88.9055 28.8905 89.9673 28.1085 91.2058 27.939C91.5116 27.8969 91.8221 27.9274 92.1257 27.8697C92.4389 27.8058 92.729 27.6615 92.9662 27.4517C93.3176 27.1467 93.4613 26.7207 93.6319 26.3086C93.7791 25.8872 93.9943 25.4915 94.2694 25.1367C94.679 24.6583 95.2315 24.3173 95.8493 24.1616C96.5887 23.9769 97.3111 24.1486 98.0425 24.2699L100.365 24.6552L100.521 24.681C100.883 24.741 101.038 24.1996 100.674 24.1392L100.674 24.1392Z" fill="black"/>
<path d="M107.236 45.0119C106.912 47.7781 104.361 49.7669 101.531 49.4604C98.7012 49.154 96.6573 46.6677 96.9593 43.899L107.236 45.0119Z" fill="#F7FFF4"/>
<path d="M106.949 45.0119C106.635 47.6321 104.208 49.507 101.529 49.1997C98.8495 48.8923 96.9323 46.5192 97.2465 43.899L96.9592 44.18L100.436 44.5565L105.972 45.156L107.236 45.2929C107.603 45.3326 107.6 44.7704 107.236 44.7309L103.759 44.3545L98.2231 43.7549L96.9592 43.6181C96.7938 43.6001 96.6866 43.7621 96.6719 43.899C96.4686 45.7947 97.3149 47.6525 98.892 48.7725C100.469 49.8925 102.537 50.1046 104.318 49.3289C106.098 48.5532 107.32 46.9076 107.524 45.0119C107.522 44.8572 107.394 44.732 107.236 44.7309C107.079 44.7343 106.952 44.8582 106.949 45.0119Z" fill="black"/>
<path d="M104.801 45.6828L105.479 39.3405L99.7279 40.7354L99.0254 44.8676" fill="#F7FFF4"/>
<path d="M105.088 45.6828L105.683 40.1183L105.767 39.3406C105.766 39.2533 105.724 39.1712 105.652 39.1182C105.581 39.0653 105.489 39.0474 105.403 39.0697L100.367 40.2908L99.6513 40.4645C99.5531 40.4896 99.4764 40.5647 99.4507 40.6607L98.8374 44.2684L98.7482 44.7931C98.6881 45.1468 99.2417 45.2989 99.3023 44.9425L99.9156 41.3348L100.005 40.8101L99.8041 41.0064L104.84 39.7852L105.556 39.6115L105.192 39.3406L104.597 44.9052L104.513 45.6828C104.475 46.0421 105.05 46.0395 105.088 45.6828H105.088Z" fill="black"/>
<path d="M105.247 41.5306C108.713 39.5288 108.053 36.9998 108.45 35.2726C108.68 34.2696 107.594 31.8978 107.594 31.8978L99.4067 28.5197L97.0135 30.9779C97.0135 30.9779 91.2628 41.9632 101.64 41.5253" fill="#F7FFF4"/>
<path d="M105.392 41.7731C106.387 41.1925 107.297 40.431 107.848 39.4181C108.231 38.662 108.461 37.8407 108.526 36.9992C108.566 36.6373 108.59 36.2739 108.632 35.9121C108.7 35.5787 108.746 35.2411 108.768 34.9017C108.751 34.0523 108.43 33.1961 108.119 32.4129C108.047 32.1892 107.955 31.972 107.845 31.7633C107.773 31.674 107.673 31.61 107.56 31.5812L106.421 31.1113L102.349 29.4314L100.516 28.675C100.189 28.5402 99.864 28.3828 99.5293 28.2679C99.5136 28.2625 99.4983 28.2551 99.4829 28.2487C99.3832 28.2202 99.2756 28.248 99.2033 28.3209L97.8872 29.6728L97.059 30.5235C96.9496 30.6198 96.8502 30.7265 96.7622 30.8419C96.6638 31.0157 96.5777 31.196 96.5047 31.3814C96.3135 31.8051 96.1381 32.2351 95.9783 32.6714C95.528 33.8499 95.2499 35.0846 95.1522 36.339C95.0722 37.6448 95.299 39.0127 96.1563 40.0568C97.2459 41.3837 99.081 41.7734 100.737 41.8151C101.038 41.8226 101.339 41.8183 101.64 41.8062C102.009 41.7913 102.011 41.2293 101.64 41.2442C99.9875 41.3107 98.0418 41.1454 96.8282 39.9506C95.9527 39.0886 95.6869 37.8651 95.7133 36.6611C95.7666 35.4495 96.0079 34.2529 96.4291 33.1122C96.5122 32.8709 96.6007 32.6313 96.6943 32.3935C96.7356 32.2886 96.7779 32.1841 96.8211 32.08C96.8404 32.0335 96.8599 31.9871 96.8796 31.9407C96.8897 31.9171 96.8998 31.8935 96.9099 31.8699C96.8855 31.9268 96.9053 31.8804 96.9178 31.8521C97.0184 31.6232 97.1386 31.4007 97.2353 31.1706C97.2451 31.1554 97.2533 31.1393 97.2598 31.1225C97.25 31.1814 97.203 31.1902 97.2783 31.1129L97.9044 30.4697L99.5001 28.8307L99.6097 28.7181L99.3301 28.7904L102.101 29.9336L106.498 31.7479L107.517 32.1685L107.346 32.0394C107.36 32.071 107.374 32.1029 107.388 32.1347C107.423 32.2131 107.393 32.1441 107.423 32.2167C107.448 32.2744 107.472 32.3323 107.496 32.3902C107.623 32.6999 107.741 33.0134 107.847 33.3307C108.055 33.9549 108.281 34.6558 108.15 35.3031C108.026 35.9104 108.008 36.5333 107.934 37.147C107.87 37.8138 107.685 38.4642 107.388 39.0678C106.884 40.0312 106.04 40.7406 105.102 41.2879C104.785 41.473 105.073 41.959 105.392 41.7731L105.392 41.7731Z" fill="black"/>
<path d="M99.8658 33.789C99.7544 33.874 99.8252 33.8197 99.8534 33.8009C99.8898 33.7768 99.9273 33.7544 99.9655 33.7332C100.022 33.702 100.079 33.6741 100.138 33.6476C100.171 33.6327 100.183 33.6301 100.142 33.6453C100.162 33.6379 100.181 33.6301 100.201 33.6229C100.243 33.6075 100.286 33.5934 100.329 33.5807C100.42 33.5538 100.514 33.5329 100.608 33.5183C100.629 33.5153 100.625 33.5156 100.598 33.5193C100.612 33.5177 100.625 33.5163 100.639 33.515C100.662 33.5129 100.685 33.5108 100.708 33.5094C100.765 33.5057 100.823 33.5046 100.881 33.506C100.942 33.5072 101.002 33.5114 101.063 33.5188C101.021 33.5135 101.114 33.528 101.112 33.5276C101.145 33.5335 101.177 33.5402 101.209 33.5477C101.336 33.5769 101.46 33.6192 101.578 33.6738C101.716 33.7477 101.889 33.7035 101.971 33.5731C102.05 33.4391 102.004 33.2681 101.868 33.189C101.351 32.9367 100.756 32.881 100.198 33.0328C99.931 33.1057 99.6802 33.2276 99.4595 33.392C99.3481 33.5019 99.3481 33.679 99.4595 33.7889C99.5732 33.8948 99.752 33.8948 99.8658 33.7889L99.8658 33.789Z" fill="black"/>
<path d="M96.3093 32.9698C96.82 33.0477 97.273 33.3475 97.6584 33.6681C97.8562 33.8326 98.0897 34.0353 98.1413 34.2975C98.1615 34.5271 98.1043 34.7569 97.9785 34.9518C97.8425 35.2067 97.6682 35.4402 97.4613 35.6445C97.3208 35.7853 97.1266 35.8972 96.9984 36.0445C96.9202 36.1469 96.8766 36.2707 96.8738 36.3986C96.8341 36.9862 97.4779 37.115 97.9461 37.1353C98.3158 37.1513 98.315 36.5893 97.9461 36.5733C97.7986 36.5753 97.6517 36.5527 97.5119 36.5067C97.4544 36.4839 97.449 36.48 97.4441 36.4562C97.4488 36.4794 97.4472 36.4106 97.4526 36.3984C97.4596 36.3531 97.4644 36.3454 97.4671 36.3753C97.4691 36.4159 97.4911 36.4048 97.533 36.3418C97.6924 36.2261 97.8369 36.0919 97.9634 35.9423C98.3245 35.5515 98.6828 35.0283 98.7231 34.4865C98.7678 33.8848 98.3044 33.4475 97.858 33.1082C97.4582 32.7709 96.9782 32.537 96.462 32.4279C96.3097 32.3918 96.155 32.4777 96.1086 32.6241C96.0675 32.7736 96.1569 32.9276 96.3093 32.9697V32.9698Z" fill="black"/>
<ellipse cx="96.5514" cy="34.8522" rx="0.371696" ry="0.363163" fill="black"/>
<path d="M96.3226 34.8324C96.3254 34.8158 96.3293 34.7995 96.3341 34.7834C96.3358 34.7736 96.3392 34.7642 96.3441 34.7555C96.343 34.7565 96.3285 34.7856 96.3417 34.7624C96.3497 34.7483 96.3572 34.7342 96.3664 34.7207L96.372 34.7129C96.3811 34.7006 96.3796 34.7026 96.3674 34.7187C96.3669 34.7143 96.3843 34.7001 96.3869 34.6975C96.3926 34.6919 96.3987 34.6868 96.4044 34.6812L96.408 34.678C96.4199 34.6684 96.4177 34.6698 96.4015 34.6822C96.4071 34.6722 96.4327 34.6617 96.4421 34.6564C96.4477 34.6534 96.4536 34.6508 96.4592 34.6476C96.4878 34.6316 96.4291 34.6566 96.4606 34.6468C96.4775 34.641 96.4948 34.6362 96.5123 34.6322L96.5171 34.6312C96.533 34.6285 96.53 34.6287 96.5083 34.6317C96.5117 34.6286 96.5281 34.63 96.5332 34.6297C96.5502 34.6289 96.5669 34.6304 96.5838 34.6308C96.6051 34.6313 96.5486 34.6229 96.5816 34.6306C96.5899 34.6325 96.5984 34.634 96.6067 34.6361C96.615 34.6382 96.623 34.6405 96.6311 34.6431C96.6359 34.6447 96.6406 34.6463 96.6453 34.6481C96.6553 34.6519 96.6516 34.6503 96.634 34.6434C96.6441 34.642 96.6682 34.6607 96.6774 34.6664C96.6862 34.6706 96.6944 34.6761 96.7015 34.6827C96.7002 34.681 96.6766 34.6609 96.6951 34.6787C96.7066 34.6899 96.7179 34.701 96.7293 34.7123C96.7512 34.7341 96.7185 34.6931 96.7279 34.7098C96.7333 34.7193 96.7408 34.728 96.7465 34.7374C96.7498 34.7428 96.753 34.7483 96.756 34.7539L96.7604 34.7623C96.767 34.7762 96.7661 34.7737 96.7578 34.7548C96.7661 34.761 96.7706 34.7913 96.7729 34.8001C96.7746 34.8064 96.7758 34.8126 96.7773 34.8189C96.785 34.8513 96.7764 34.7866 96.7777 34.82C96.7789 34.838 96.7792 34.8561 96.7784 34.8742C96.7773 34.8929 96.7682 34.8908 96.7796 34.872C96.7777 34.8785 96.7764 34.8851 96.7758 34.8919C96.7722 34.9082 96.7667 34.9237 96.7617 34.9397C96.7517 34.9714 96.7764 34.913 96.7605 34.942C96.7574 34.9477 96.7545 34.9535 96.7513 34.9591C96.7465 34.9675 96.7413 34.9757 96.7359 34.9836L96.7303 34.9915C96.7211 35.0037 96.7226 35.0018 96.7349 34.9857C96.7352 34.9924 96.7063 35.0156 96.7014 35.02C96.6991 35.0221 96.678 35.044 96.6938 35.0273C96.7087 35.0116 96.6888 35.0305 96.6849 35.0331C96.6714 35.0419 96.6572 35.049 96.643 35.0568C96.6188 35.0699 96.6504 35.0545 96.6507 35.0542C96.6459 35.0605 96.6214 35.0644 96.6137 35.0665C96.6075 35.0682 96.6011 35.0698 96.5947 35.0712L96.5851 35.0732C96.5692 35.0759 96.5722 35.0757 96.5939 35.0727C96.5878 35.0787 96.5572 35.0751 96.5489 35.075C96.5406 35.075 96.5319 35.0742 96.5234 35.074C96.4898 35.0734 96.5465 35.0793 96.5257 35.0747C96.5073 35.0705 96.489 35.0671 96.4711 35.0613L96.4616 35.058C96.4468 35.0524 96.449 35.0534 96.4681 35.061C96.4598 35.0557 96.4509 35.0513 96.4417 35.0478C96.4345 35.0439 96.4275 35.0397 96.4207 35.0354C96.4166 35.0328 96.4125 35.0301 96.4085 35.0273C96.3959 35.0183 96.3979 35.0198 96.4144 35.0318C96.4049 35.0328 96.3786 34.9978 96.3728 34.9921C96.3622 34.9816 96.3622 34.9897 96.377 34.9984C96.3705 34.9946 96.3648 34.9816 96.3606 34.9751C96.3554 34.9671 96.3506 34.9589 96.3461 34.9505C96.3437 34.9463 96.3416 34.942 96.3396 34.9378C96.335 34.9282 96.3366 34.9321 96.3443 34.9496C96.3347 34.9417 96.3296 34.9069 96.3268 34.8949C96.3256 34.8896 96.315 34.8651 96.3241 34.8851C96.3256 34.8974 96.3257 34.8972 96.3243 34.8845C96.3237 34.878 96.3233 34.8715 96.3231 34.8649C96.3228 34.8584 96.3228 34.8518 96.3229 34.8452C96.3231 34.8365 96.3285 34.7915 96.3224 34.8325C96.3413 34.758 96.2972 34.6822 96.2221 34.6598C96.1457 34.6401 96.0672 34.6837 96.0454 34.7579C96.0263 34.8671 96.0424 34.9795 96.0915 35.0795C96.1361 35.1667 96.2059 35.2391 96.2923 35.2879C96.4854 35.3946 96.7265 35.3706 96.8936 35.2279C97.051 35.0909 97.107 34.8739 97.0347 34.6803C96.9558 34.4673 96.7408 34.3323 96.5098 34.3504C96.2787 34.3685 96.0886 34.5353 96.0454 34.7579C96.0262 34.8324 96.0704 34.9084 96.1457 34.9305C96.2222 34.9503 96.3008 34.9066 96.3226 34.8324Z" fill="black"/>
<ellipse cx="100.034" cy="35.2546" rx="0.371704" ry="0.363159" fill="black"/>
<path d="M99.805 35.2346C99.8078 35.2181 99.8117 35.2018 99.8166 35.1857C99.8183 35.1759 99.8216 35.1665 99.8265 35.1578C99.8255 35.1588 99.811 35.1879 99.8242 35.1646C99.8321 35.1505 99.8396 35.1364 99.8488 35.123L99.8544 35.1151C99.8636 35.1029 99.862 35.1048 99.8498 35.1209C99.8493 35.1165 99.8667 35.1024 99.8693 35.0998C99.875 35.0941 99.8812 35.089 99.8868 35.0835L99.8904 35.0803C99.9023 35.0706 99.9002 35.072 99.8839 35.0844C99.8895 35.0744 99.9151 35.0638 99.9245 35.0587C99.9301 35.0556 99.936 35.053 99.9416 35.0499C99.9702 35.0338 99.9115 35.0589 99.943 35.049C99.96 35.0433 99.9772 35.0384 99.9947 35.0344L99.9995 35.0334C100.015 35.0307 100.012 35.0309 99.9907 35.0339C99.9942 35.0308 100.011 35.0322 100.016 35.032C100.033 35.0312 100.049 35.0326 100.066 35.033C100.088 35.0336 100.031 35.0251 100.064 35.0328C100.072 35.0348 100.081 35.0363 100.089 35.0383C100.097 35.0404 100.105 35.0427 100.113 35.0454C100.118 35.0469 100.123 35.0486 100.128 35.0504C100.138 35.0541 100.134 35.0526 100.116 35.0456C100.126 35.0443 100.151 35.063 100.16 35.0686C100.169 35.0728 100.177 35.0783 100.184 35.0849C100.183 35.0832 100.159 35.0632 100.178 35.081C100.189 35.0921 100.2 35.1032 100.212 35.1145C100.234 35.1363 100.201 35.0953 100.21 35.112C100.216 35.1216 100.223 35.1302 100.229 35.1396C100.232 35.145 100.235 35.1506 100.238 35.1561L100.243 35.1646C100.249 35.1784 100.249 35.1759 100.24 35.157C100.248 35.1633 100.253 35.1936 100.255 35.2024C100.257 35.2086 100.258 35.2149 100.26 35.2212C100.267 35.2535 100.259 35.1887 100.26 35.2222C100.261 35.2403 100.262 35.2583 100.261 35.2764C100.26 35.2951 100.251 35.293 100.262 35.2742C100.26 35.2807 100.259 35.2874 100.258 35.2941C100.255 35.3104 100.249 35.326 100.244 35.3419C100.234 35.3736 100.259 35.3152 100.243 35.3443C100.24 35.3499 100.237 35.3557 100.234 35.3613C100.229 35.3697 100.224 35.3779 100.218 35.3859L100.213 35.3937C100.204 35.4059 100.205 35.404 100.217 35.3879C100.218 35.3947 100.189 35.4178 100.184 35.4222C100.182 35.4243 100.16 35.4462 100.176 35.4295C100.191 35.4138 100.171 35.4328 100.167 35.4353C100.154 35.4442 100.14 35.4512 100.125 35.459C100.101 35.4722 100.133 35.4568 100.133 35.4564C100.128 35.4627 100.104 35.4667 100.096 35.4687C100.09 35.4704 100.084 35.472 100.077 35.4734L100.068 35.4754C100.052 35.4781 100.055 35.4779 100.076 35.4749C100.07 35.4809 100.04 35.4773 100.031 35.4773C100.023 35.4772 100.014 35.4764 100.006 35.4762C99.9723 35.4756 100.029 35.4815 100.008 35.4769C99.9897 35.4727 99.9714 35.4693 99.9535 35.4635L99.944 35.4602C99.9292 35.4547 99.9314 35.4557 99.9505 35.4632C99.9422 35.458 99.9333 35.4535 99.9241 35.45C99.9169 35.4461 99.9099 35.442 99.9031 35.4376C99.899 35.435 99.8949 35.4323 99.8909 35.4295C99.8784 35.4206 99.8803 35.4221 99.8968 35.434C99.8873 35.435 99.861 35.4 99.8552 35.3943C99.8447 35.3838 99.8446 35.392 99.8595 35.4006C99.853 35.3968 99.8472 35.3838 99.843 35.3773C99.8379 35.3693 99.833 35.3611 99.8285 35.3527C99.8262 35.3485 99.8241 35.3443 99.822 35.34C99.8174 35.3304 99.819 35.3344 99.8267 35.3518C99.8171 35.3439 99.8121 35.3091 99.8092 35.2972C99.808 35.2918 99.7974 35.2673 99.8066 35.2873C99.8081 35.2996 99.8081 35.2994 99.8067 35.2867C99.8061 35.2802 99.8057 35.2737 99.8055 35.2672C99.8053 35.2606 99.8052 35.254 99.8054 35.2474C99.8055 35.2388 99.8109 35.1937 99.8048 35.2347C99.8237 35.1602 99.7796 35.0844 99.7045 35.0621C99.6281 35.0423 99.5496 35.0859 99.5278 35.1601C99.5088 35.2694 99.5249 35.3817 99.5739 35.4817C99.6185 35.5689 99.6883 35.6413 99.7747 35.6901C99.9678 35.7969 100.209 35.7728 100.376 35.6301C100.533 35.4931 100.589 35.2761 100.517 35.0825C100.438 34.8696 100.223 34.7345 99.9922 34.7526C99.7611 34.7707 99.571 34.9376 99.5278 35.1601C99.5086 35.2346 99.5528 35.3106 99.6281 35.3327C99.7046 35.3525 99.7832 35.3089 99.805 35.2346Z" fill="black"/>
<ellipse cx="99.2198" cy="38.2693" rx="0.484005" ry="0.472872" fill="black"/>
<path d="M98.8807 38.2327C98.8844 38.2111 98.8894 38.1898 98.8957 38.1689C98.8995 38.1566 98.9038 38.1444 98.9087 38.1325C98.9062 38.1385 98.897 38.154 98.91 38.1313C98.9205 38.1129 98.9301 38.0945 98.9421 38.077C98.9444 38.0737 98.9703 38.0431 98.9501 38.0657C98.9584 38.0564 98.9667 38.0471 98.9756 38.0382C98.9829 38.0308 98.9909 38.0241 98.9983 38.0169C99.0032 38.0122 99.0252 37.9952 99.0033 38.0115C99.0201 37.9992 99.0378 37.988 99.0561 37.978C99.0635 37.974 99.0712 37.9705 99.0785 37.9665C99.1127 37.9476 99.0532 37.9733 99.0907 37.9611C99.1127 37.9535 99.1352 37.9472 99.158 37.9421C99.1654 37.9405 99.1937 37.9364 99.1643 37.9399C99.1751 37.9386 99.1859 37.9379 99.1967 37.9374C99.2188 37.9365 99.2408 37.937 99.2628 37.9388C99.2877 37.9406 99.2302 37.9308 99.2714 37.94C99.2823 37.9424 99.2932 37.9444 99.3041 37.9472C99.3149 37.95 99.3254 37.9529 99.3358 37.9563C99.3388 37.9573 99.3768 37.9732 99.35 37.961C99.3695 37.9698 99.3883 37.9798 99.4065 37.991C99.4172 37.9976 99.4279 38.0046 99.4379 38.0122C99.4326 38.0081 99.4201 37.9959 99.4384 38.0137C99.4533 38.0283 99.4681 38.0427 99.4829 38.0574C99.5103 38.0849 99.4741 38.0441 99.4878 38.0627C99.4965 38.0744 99.5046 38.0864 99.5121 38.0987C99.5171 38.1069 99.5423 38.1581 99.5312 38.1315C99.5391 38.1508 99.5457 38.1705 99.5509 38.1906C99.553 38.1987 99.5545 38.207 99.5565 38.2151C99.5659 38.2537 99.5565 38.1877 99.5587 38.2277C99.5604 38.2513 99.5607 38.2748 99.5596 38.2984C99.5592 38.3053 99.5552 38.3336 99.5596 38.3068C99.5582 38.3155 99.5565 38.3241 99.5546 38.3328C99.5499 38.354 99.5431 38.3743 99.5362 38.395C99.5238 38.4327 99.5493 38.3735 99.5303 38.4082C99.5262 38.4156 99.5225 38.4231 99.5183 38.4304C99.512 38.4413 99.5053 38.452 99.4982 38.4624C99.4945 38.4677 99.4711 38.4951 99.4902 38.4737C99.4765 38.4893 99.462 38.5043 99.4466 38.5184C99.4474 38.5176 99.4162 38.5438 99.4322 38.5312C99.4483 38.5186 99.4155 38.5426 99.4163 38.5421C99.3986 38.5536 99.3801 38.5627 99.3617 38.5728C99.3388 38.5855 99.3553 38.5762 99.3614 38.5738C99.3457 38.58 99.3296 38.5853 99.3133 38.5898C99.3026 38.5927 99.2459 38.603 99.276 38.5994C99.2565 38.6016 99.2369 38.6026 99.2173 38.6024C99.2062 38.6024 99.1952 38.6014 99.1841 38.6011C99.1425 38.6 99.2001 38.6048 99.1755 38.6004C99.1514 38.5963 99.1276 38.5904 99.1044 38.583C99.1009 38.5818 99.0622 38.5653 99.0902 38.5784C99.0785 38.5729 99.067 38.5674 99.0557 38.5612C99.0464 38.5561 99.0373 38.5506 99.0284 38.5449C99.0229 38.5415 98.9892 38.5147 99.0115 38.5337C98.9922 38.5173 98.9751 38.4996 98.9573 38.4819C98.9538 38.4783 98.9402 38.4612 98.956 38.4815C98.9484 38.4718 98.9413 38.4615 98.9346 38.4511C98.9279 38.4407 98.9216 38.43 98.9157 38.4191C98.9142 38.4162 98.8972 38.3796 98.909 38.4078C98.8994 38.3846 98.8918 38.3608 98.8863 38.3365C98.8864 38.3372 98.8784 38.2969 98.882 38.318C98.8848 38.3341 98.88 38.2909 98.8798 38.2861C98.8795 38.2776 98.8795 38.2689 98.8797 38.2604C98.8798 38.2547 98.885 38.2024 98.8805 38.2325C98.8994 38.158 98.8553 38.0821 98.7802 38.0597C98.7038 38.04 98.6253 38.0836 98.6035 38.1578C98.5543 38.4153 98.6777 38.6749 98.9108 38.8039C99.1438 38.9329 99.435 38.9029 99.6354 38.7292C99.8292 38.5613 99.8978 38.2943 99.8081 38.0567C99.7104 37.7976 99.4477 37.6344 99.1663 37.658C98.885 37.6816 98.6546 37.8863 98.6035 38.1578C98.5843 38.2324 98.6285 38.3085 98.7038 38.3306C98.7802 38.3504 98.8588 38.3069 98.8807 38.2327Z" fill="black"/>
<path d="M106.255 34.7816C106.107 34.7054 105.94 34.6721 105.773 34.6855C105.393 34.7296 105.049 34.9288 104.828 35.234C104.603 35.528 104.426 35.8532 104.3 36.1988C104.259 36.3484 104.348 36.5027 104.501 36.5444C104.653 36.5813 104.809 36.4951 104.854 36.3482C104.87 36.309 104.885 36.27 104.901 36.2312C104.906 36.2198 104.93 36.1658 104.909 36.212C104.916 36.1962 104.924 36.1804 104.931 36.1646C104.961 36.098 104.993 36.0323 105.028 35.9674C105.087 35.8537 105.154 35.7442 105.23 35.6397C105.237 35.6298 105.244 35.62 105.251 35.6101C105.27 35.5854 105.29 35.5856 105.245 35.6176C105.261 35.6017 105.276 35.5841 105.289 35.5651C105.321 35.5273 105.355 35.4909 105.391 35.4562C105.421 35.4282 105.451 35.4022 105.482 35.3762C105.536 35.3307 105.432 35.4098 105.482 35.3766C105.499 35.365 105.516 35.3531 105.533 35.3421C105.561 35.3248 105.59 35.3086 105.619 35.294C105.634 35.2869 105.649 35.281 105.663 35.2735C105.693 35.2582 105.586 35.3018 105.628 35.2881C105.638 35.285 105.647 35.2811 105.657 35.2779C105.682 35.2691 105.708 35.2616 105.735 35.2554C105.748 35.2524 105.761 35.25 105.774 35.2472C105.841 35.2332 105.718 35.2518 105.748 35.2499C105.794 35.2458 105.839 35.245 105.884 35.2473C105.893 35.248 105.902 35.2493 105.911 35.2498C105.949 35.252 105.816 35.2339 105.869 35.2445C105.887 35.2481 105.904 35.251 105.922 35.2553C105.949 35.262 105.975 35.2721 106.001 35.2806C105.929 35.2576 105.927 35.2465 105.965 35.2669C106.102 35.3452 106.278 35.3001 106.358 35.1661C106.438 35.0321 106.392 34.86 106.255 34.7816L106.255 34.7816Z" fill="black"/>
<path d="M93.2209 37.1268L92.0981 36.8887L93.2209 37.1268Z" fill="#FFC41F"/>
<path d="M93.2971 36.8552L92.3143 36.6473L92.1743 36.6177C92.0751 36.5902 91.9684 36.6168 91.8947 36.6874C91.8211 36.758 91.7918 36.8617 91.818 36.9592C91.8443 37.0567 91.9219 37.133 92.0216 37.159L93.0043 37.3669L93.1443 37.3965C93.2436 37.424 93.3503 37.3974 93.4239 37.3268C93.4976 37.2563 93.5268 37.1525 93.5006 37.055C93.4744 36.9576 93.3967 36.8813 93.2971 36.8552Z" fill="black"/>
<path d="M93.2837 38.6912L92.1509 38.8771L93.2837 38.6912Z" fill="#FFC41F"/>
<path d="M93.2074 38.4202L92.2175 38.583L92.0746 38.6065C91.922 38.6483 91.8324 38.8024 91.8739 38.9518C91.9197 39.0985 92.0749 39.1846 92.2273 39.1479L93.2172 38.9851L93.3601 38.9615C93.5127 38.9198 93.6023 38.7657 93.5608 38.6162C93.515 38.4696 93.3598 38.3835 93.2074 38.4202Z" fill="black"/>
<path d="M93.7407 39.8916L92.9189 40.6759L93.7407 39.8916Z" fill="#FFC41F"/>
<path d="M93.5376 39.6928L92.8169 40.3814L92.7159 40.4779C92.6047 40.5878 92.6052 40.7649 92.717 40.8742C92.8287 40.9835 93.0098 40.984 93.1222 40.8753L93.8429 40.1867L93.9439 40.0902C94.0551 39.9803 94.0546 39.8032 93.9428 39.6939C93.8311 39.5846 93.65 39.5841 93.5376 39.6928Z" fill="black"/>
<path d="M94.9492 30.5447L102.994 32.3241L103.531 37.0533C103.531 37.0533 103.681 35.0492 104.483 34.2781C104.824 33.9735 105.19 33.7919 105.517 33.8297C106.416 33.9336 107.071 34.3096 106.919 35.5681C106.819 36.4013 105.929 37.7708 105.386 38.0935L105.247 41.5306L105.249 41.5294C107.062 40.4024 110.205 38.4861 111.593 33.3005C111.894 32.1692 111.867 30.978 111.513 29.8612C110.809 27.6323 108.899 25.9686 106.554 25.5405L98.1095 23.989" fill="#9C8629"/>
<path d="M94.8729 30.8156L97.5989 31.4186L101.92 32.3744L102.917 32.595L102.706 32.3241L103.177 36.4662L103.243 37.0533C103.249 37.2046 103.376 37.3244 103.531 37.3244C103.685 37.3244 103.812 37.2046 103.818 37.0533C103.856 36.3091 104.045 35.5798 104.374 34.9076C104.496 34.6672 104.678 34.4606 104.903 34.3069C105.132 34.1372 105.427 34.0766 105.708 34.1416C106.122 34.2236 106.491 34.4049 106.608 34.8313C106.753 35.3645 106.576 35.9274 106.337 36.4063C106.106 36.915 105.776 37.3748 105.365 37.7599C105.234 37.8712 105.112 37.935 105.098 38.1223C105.091 38.2081 105.091 38.2946 105.087 38.3805L105.044 39.4522L104.96 41.5305C104.961 41.6306 105.016 41.7227 105.105 41.7725C105.194 41.8223 105.303 41.8226 105.392 41.7731C106.99 40.7889 108.452 39.671 109.589 38.1784C110.4 37.095 111.038 35.8975 111.48 34.6268C111.782 33.8483 111.98 33.035 112.068 32.207C112.134 31.3695 112.033 30.5276 111.771 29.7275C111.002 27.4166 109.002 25.7016 106.559 25.2565C105.176 25.0016 103.792 24.7474 102.408 24.4938C101.025 24.2396 99.6427 23.9756 98.2573 23.7312C98.2335 23.727 98.2097 23.7224 98.1859 23.718C97.8245 23.6516 97.6696 24.193 98.0332 24.2599L101.426 24.8832L106.077 25.7377C106.721 25.8359 107.351 26.0136 107.949 26.2667C110.684 27.5035 112.097 30.4977 111.286 33.3353C110.927 34.691 110.358 35.9854 109.601 37.1739C108.559 38.7766 107.128 40.0136 105.508 41.0348C105.373 41.1197 105.238 41.2041 105.102 41.2879L105.534 41.5306L105.673 38.0935L105.531 38.3361C105.828 38.131 106.084 37.8738 106.285 37.5775C106.536 37.243 106.75 36.8829 106.921 36.5034C107.227 35.8256 107.425 34.9134 106.966 34.2514C106.585 33.7021 105.664 33.3886 105.021 33.6171C104.202 33.9083 103.791 34.6506 103.552 35.4205C103.389 35.9522 103.286 36.4997 103.243 37.0534H103.818L103.348 32.9113L103.281 32.3242C103.278 32.1989 103.193 32.0897 103.07 32.0533L100.344 31.4503L96.023 30.4945L95.0257 30.2738C94.6656 30.1942 94.5118 30.7358 94.8729 30.8157V30.8156Z" fill="black"/>
<path d="M100.408 54.801L104.907 44.582L105.059 43.1507L105.809 43.1503C107.122 43.1495 108.377 43.6759 109.282 44.6062L109.949 45.2928L106.154 50.6802" fill="#95D87A"/>
<path d="M100.656 54.9429L102.527 50.6922L104.993 45.0909C105.082 44.9277 105.149 44.7547 105.195 44.5757C105.271 44.106 105.296 43.6238 105.347 43.1507L105.059 43.4317C105.356 43.4315 105.653 43.4249 105.95 43.4332C106.606 43.4517 107.249 43.6111 107.835 43.9003C108.607 44.2839 109.16 44.8885 109.747 45.4915L109.702 45.151L106.383 49.8613L105.906 50.5385C105.696 50.837 106.193 51.1183 106.402 50.8222L109.721 46.1119L110.198 45.4347C110.263 45.3242 110.244 45.185 110.153 45.0942C109.517 44.4406 108.907 43.7894 108.063 43.385C107.446 43.0891 106.775 42.9165 106.09 42.8773C105.747 42.8578 105.402 42.8696 105.059 42.8698C104.902 42.8737 104.776 42.9972 104.772 43.1508L104.63 44.4875C104.605 44.7177 104.71 44.3448 104.64 44.4843C104.607 44.5492 104.581 44.6179 104.551 44.6842L103.618 46.8041L100.853 53.0845L100.16 54.6593C100.015 54.9879 100.51 55.2744 100.656 54.9429H100.656Z" fill="black"/>
<path d="M102.498 73.5817C102.498 73.5817 103.627 80.4581 109.248 80.507L102.498 73.5817Z" fill="#95D87A"/>
<path d="M102.221 73.6564C102.372 74.4794 102.621 75.2821 102.964 76.0481C103.617 77.5682 104.604 79.0079 106.054 79.8995C107.014 80.4776 108.12 80.7851 109.248 80.788C109.618 80.7927 109.618 80.2307 109.248 80.2261C108.304 80.2242 107.376 79.9867 106.552 79.5361C105.838 79.1269 105.215 78.584 104.717 77.9384C103.898 76.86 103.303 75.6348 102.967 74.3323C102.889 74.0607 102.825 73.7852 102.775 73.507C102.716 73.151 102.163 73.302 102.221 73.6564Z" fill="black"/>
<path d="M107.582 53.2166C107.582 53.2166 104.899 53.4247 103.626 56.6837C106.653 57.3018 107.786 55.9039 107.786 55.9039C107.786 55.9039 108.387 59.1836 109.874 59.309C110.285 58.0339 110.886 55.5597 108.9 53.2713" fill="#9C8629"/>
<path d="M107.582 52.9356C106.338 53.0354 105.149 53.8567 104.396 54.7823C103.954 55.3356 103.601 55.9516 103.349 56.609C103.308 56.7585 103.398 56.9128 103.55 56.9546C104.657 57.1754 105.854 57.2267 106.917 56.7965C107.327 56.6534 107.694 56.4152 107.989 56.1026L107.509 55.9786C107.586 56.3802 107.691 56.7762 107.823 57.1639C108.05 57.8432 108.346 58.5609 108.861 59.0837C109.125 59.3662 109.485 59.546 109.874 59.59C110.003 59.5892 110.116 59.5051 110.151 59.3837C110.458 58.4917 110.6 57.5533 110.571 56.6125C110.492 55.3072 109.976 54.0634 109.104 53.0727C108.866 52.7952 108.461 53.1945 108.697 53.47C109.494 54.3817 109.953 55.5292 110.001 56.7275C110.012 57.5794 109.875 58.427 109.597 59.2343L109.874 59.028C109.168 58.9564 108.735 57.9672 108.51 57.3854C108.313 56.881 108.164 56.3601 108.063 55.8292C108.035 55.7333 107.957 55.659 107.859 55.6335C107.76 55.6081 107.655 55.6353 107.583 55.7052C107.519 55.7783 107.448 55.8451 107.37 55.9046C107.348 55.9227 107.325 55.9399 107.361 55.9125C107.336 55.9313 107.31 55.9497 107.284 55.9675C107.233 56.0032 107.18 56.0371 107.126 56.0692C107.004 56.1419 106.878 56.2063 106.747 56.2616C105.795 56.6615 104.697 56.6111 103.703 56.4128L103.904 56.7584C104.498 55.257 105.689 53.9278 107.309 53.5487C107.392 53.5295 107.475 53.5161 107.557 53.5002C107.618 53.4886 107.488 53.5051 107.582 53.4975C107.948 53.4681 107.951 52.906 107.582 52.9356H107.582Z" fill="black"/>
<path d="M109.949 44.2542C108.818 44.9655 108.25 46.2824 108.518 47.5708C106.77 47.9491 105.663 49.6364 106.04 51.3474C106.417 53.0585 108.136 54.1507 109.887 53.7921C111.639 53.4335 112.766 51.7587 112.409 50.0436C113.73 49.7589 114.733 48.7059 114.93 47.3978C115.127 46.0897 114.477 44.7986 113.296 44.1537" fill="#9C8629"/>
<path d="M109.804 44.0117C108.574 44.7975 107.955 46.2358 108.241 47.6456L108.441 47.3C106.539 47.7187 105.341 49.5618 105.76 51.4239C106.179 53.286 108.057 54.4671 109.963 54.0667C111.87 53.6664 113.087 51.835 112.687 49.9689L112.486 50.3145C113.583 50.0729 114.498 49.3363 114.951 48.3296C115.404 47.3228 115.342 46.1655 114.783 45.2109C114.462 44.669 113.999 44.2203 113.442 43.9111C113.305 43.8383 113.134 43.8848 113.056 44.016C112.977 44.1473 113.02 44.3158 113.152 44.3963C114.233 44.9837 114.829 46.1653 114.646 47.3618C114.464 48.5583 113.543 49.5189 112.333 49.7728C112.182 49.8167 112.094 49.9692 112.132 50.1184C112.314 51.0218 112.047 51.9558 111.413 52.6362C110.779 53.3167 109.852 53.6631 108.916 53.57C107.04 53.3994 105.819 51.4812 106.404 49.7536C106.744 48.787 107.574 48.063 108.594 47.8418C108.745 47.7979 108.833 47.6454 108.795 47.4962C108.569 46.3316 109.082 45.1486 110.094 44.4969C110.402 44.2992 110.115 43.8124 109.804 44.0117L109.804 44.0117Z" fill="black"/>
<path d="M152.936 104.344H145.083L145.227 104.484V90.2491C145.225 90.172 145.162 90.1097 145.083 90.1086H134.166L134.309 90.2491V81.8689C134.309 81.3687 134.216 80.8983 133.759 80.5874C133.296 80.2721 132.628 80.3687 132.093 80.3687H129.979C129.222 80.3476 128.469 80.4906 127.775 80.7873C126.837 81.2151 126.073 81.9387 125.606 82.842C125.28 83.4851 125.112 84.194 125.116 84.9119C125.115 85.1469 125.115 85.3818 125.116 85.6168V100.083L125.259 99.9423H116.88L117.023 100.083V96.4009C117.035 96.1007 117.022 95.8002 116.987 95.5018C116.75 94.125 115.535 93.1141 114.108 93.1055C113.343 93.0994 112.577 93.1055 111.812 93.1055H109.248C109.17 93.1082 109.109 93.1703 109.109 93.246C109.109 93.3218 109.17 93.3839 109.248 93.3865H113.952C114.393 93.3722 114.833 93.456 115.237 93.6316C115.897 93.9403 116.398 94.5031 116.618 95.186C116.713 95.5358 116.753 95.8977 116.736 96.2593V100.083C116.737 100.16 116.801 100.222 116.88 100.223H125.259C125.338 100.222 125.402 100.16 125.403 100.083V86.4742C125.403 85.9377 125.4 85.401 125.403 84.8644C125.421 82.7493 127.025 80.968 129.168 80.6819C129.718 80.6378 130.27 80.627 130.822 80.6496H132.843C133.104 80.627 133.365 80.6847 133.591 80.8149C133.867 81.0028 134.029 81.3137 134.022 81.6429C134.025 81.9657 134.022 82.2887 134.022 82.6115V90.2491C134.023 90.3262 134.087 90.3885 134.166 90.3896H145.083L144.939 90.2491V104.484C144.94 104.562 145.004 104.624 145.083 104.625H152.936C153.013 104.622 153.075 104.56 153.075 104.484C153.075 104.409 153.013 104.347 152.936 104.344H152.936Z" fill="black"/>
</svg>
