<svg width="24" height="24" viewBox="0 0 24 24" fill="none" xmlns="http://www.w3.org/2000/svg">
<path fill-rule="evenodd" clip-rule="evenodd" d="M12 3.75C10.2051 3.75 8.75 5.20507 8.75 7C8.75 8.79493 10.2051 10.25 12 10.25C13.7949 10.25 15.25 8.79493 15.25 7C15.25 5.20507 13.7949 3.75 12 3.75ZM7.25 7C7.25 4.37665 9.37665 2.25 12 2.25C14.6234 2.25 16.75 4.37665 16.75 7C16.75 9.62335 14.6234 11.75 12 11.75C9.37665 11.75 7.25 9.62335 7.25 7Z" fill="white"/>
<path fill-rule="evenodd" clip-rule="evenodd" d="M7.5 14.75C5.98122 14.75 4.75 15.9812 4.75 17.5C4.75 19.0188 5.98122 20.25 7.5 20.25H16.5C18.0188 20.25 19.25 19.0188 19.25 17.5C19.25 15.9812 18.0188 14.75 16.5 14.75H7.5ZM3.25 17.5C3.25 15.1528 5.15279 13.25 7.5 13.25H16.5C18.8472 13.25 20.75 15.1528 20.75 17.5C20.75 19.8472 18.8472 21.75 16.5 21.75H7.5C5.15279 21.75 3.25 19.8472 3.25 17.5Z" fill="white"/>
</svg>
