<svg width="14" height="13" viewBox="0 0 14 13" fill="none" xmlns="http://www.w3.org/2000/svg">
<path d="M6.10108 0.485124C6.24956 0.0219856 6.90486 0.0219862 7.05334 0.485124L8.23808 4.18051C8.30443 4.38747 8.49687 4.52786 8.71421 4.52786H12.5622C13.0449 4.52786 13.2474 5.14426 12.8586 5.43049L9.73411 7.7312C9.5612 7.85851 9.48889 8.082 9.55444 8.28647L10.7452 12.0006C10.8933 12.4624 10.3631 12.8434 9.97259 12.5559L6.87368 10.274C6.69735 10.1442 6.45707 10.1442 6.28074 10.274L3.18183 12.5559C2.79129 12.8434 2.26117 12.4624 2.40924 12.0006L3.59998 8.28647C3.66553 8.082 3.59322 7.85851 3.42032 7.7312L0.295771 5.43049C-0.0929554 5.14426 0.109499 4.52786 0.592238 4.52786H4.44021C4.65755 4.52786 4.84999 4.38747 4.91634 4.18051L6.10108 0.485124Z" fill="#FFA94B"/>
</svg>
